<?xml version="1.0" encoding="utf-8"?>
<!-- Generator: Adobe Illustrator 16.0.0, SVG Export Plug-In . SVG Version: 6.00 Build 0)  -->
<!DOCTYPE svg PUBLIC "-//W3C//DTD SVG 1.1//EN" "http://www.w3.org/Graphics/SVG/1.1/DTD/svg11.dtd">
<svg version="1.1" id="Layer_1" xmlns="http://www.w3.org/2000/svg" xmlns:xlink="http://www.w3.org/1999/xlink" x="0px" y="0px"
	 width="75.917px" height="71px" viewBox="0 0 75.917 71" enable-background="new 0 0 75.917 71" xml:space="preserve">
<g opacity="0.6">
	<path fill="#2494F2" d="M31.676,57.165c-3.662,0-6.647,2.979-6.647,6.642c0,3.663,2.985,6.644,6.647,6.644
		c3.665,0,6.643-2.98,6.643-6.644C38.314,60.144,35.336,57.165,31.676,57.165L31.676,57.165z M31.676,66.743
		c-1.62,0-2.935-1.317-2.935-2.937s1.315-2.934,2.935-2.934c1.612,0,2.933,1.314,2.933,2.934S33.289,66.743,31.676,66.743
		L31.676,66.743z M31.676,66.743"/>
	<path fill="#2494F2" d="M54.978,57.165c-3.664,0-6.643,2.979-6.643,6.642c0,3.663,2.979,6.644,6.643,6.644
		c3.663,0,6.643-2.98,6.643-6.644C61.62,60.144,58.641,57.165,54.978,57.165L54.978,57.165z M54.978,66.743
		c-1.616,0-2.936-1.317-2.936-2.937s1.32-2.934,2.936-2.934c1.617,0,2.936,1.314,2.936,2.934S56.594,66.743,54.978,66.743
		L54.978,66.743z M54.978,66.743"/>
	<path fill="#2494F2" d="M56.616,22.182H30.035c-1.025,0-1.855,0.833-1.855,1.856c0,1.025,0.831,1.855,1.855,1.855h26.582
		c1.025,0,1.855-0.83,1.855-1.855C58.472,23.015,57.641,22.182,56.616,22.182L56.616,22.182z M56.616,22.182"/>
	<g>
		<path fill="#2494F2" d="M55.165,31.816H31.48c-1.023,0-1.853,0.829-1.853,1.856c0,1.024,0.83,1.851,1.853,1.851h23.685
			c1.025,0,1.859-0.826,1.859-1.851C57.024,32.645,56.19,31.816,55.165,31.816L55.165,31.816z M55.165,31.816"/>
		<path fill="#2494F2" d="M74.704,13.923c-0.706-0.868-1.753-1.367-2.872-1.367H14.058l-1.167-5.667
			c-0.246-1.179-1.05-2.172-2.157-2.651l-8.14-3.53c-0.94-0.414-2.029,0.019-2.438,0.961C-0.256,2.607,0.177,3.7,1.114,4.104
			l8.143,3.538l8.974,43.561c0.353,1.715,1.886,2.964,3.634,2.964H66.3c1.026,0,1.855-0.834,1.855-1.854
			c0-1.027-0.83-1.855-1.855-1.855H21.865l-1.089-5.304H66.64c1.753,0,3.281-1.24,3.639-2.962l5.187-25.18
			C75.691,15.917,75.41,14.789,74.704,13.923L74.704,13.923z M66.64,41.448H20.011l-5.188-25.184h57.005L66.64,41.448z
			 M66.64,41.448"/>
	</g>
</g>
</svg>
