<?xml version="1.0" encoding="utf-8"?>
<!-- Generator: Adobe Illustrator 16.0.0, SVG Export Plug-In . SVG Version: 6.00 Build 0)  -->
<!DOCTYPE svg PUBLIC "-//W3C//DTD SVG 1.1//EN" "http://www.w3.org/Graphics/SVG/1.1/DTD/svg11.dtd">
<svg version="1.1" id="Layer_1" xmlns="http://www.w3.org/2000/svg" xmlns:xlink="http://www.w3.org/1999/xlink" x="0px" y="0px"
	 width="46.667px" height="38.666px" viewBox="0 0 46.667 38.666" enable-background="new 0 0 46.667 38.666" xml:space="preserve">
<path fill="#7D7D7D" d="M17.976,3.601l-0.297-0.212c-0.297-0.21-0.596-0.422-0.897-0.63c-0.314-0.219-0.633-0.45-0.94-0.675
	c-0.356-0.261-0.723-0.528-1.096-0.78c-0.05-0.033-0.103-0.071-0.155-0.11c-0.264-0.2-0.653-0.455-1.078-0.411
	c-0.577,0.056-1.022,0.64-1.022,1.128v1.289c0,0-0.015,0-0.051,0c-1.255,0-7.509,0.317-7.509,6.588c0,0.18,0.141,0.333,0.318,0.363
	c0.02,0.004,0.048,0.006,0.067,0.006c0.154,0,0.299-0.099,0.353-0.249c0.046-0.132,1.148-3.252,6.1-3.252
	c0.25,0,0.538,0.009,0.723,0.025v1.201c0,0.401,0.295,0.802,0.68,1.021c0.135,0.075,0.303,0.115,0.452,0.115
	c0.367,0,0.671-0.228,0.907-0.411c0.063-0.051,0.13-0.097,0.187-0.133c0.217-0.142,0.44-0.293,0.647-0.442
	c0.105-0.074,0.214-0.149,0.319-0.22c0.578-0.398,1.163-0.816,1.723-1.221l0.162-0.115c0.074-0.053,0.146-0.104,0.222-0.155
	c0.061-0.042,0.123-0.086,0.172-0.121c0.43-0.281,0.964-0.632,0.964-1.305C18.926,4.248,18.483,3.946,17.976,3.601L17.976,3.601z
	 M17.547,5.591c-0.059,0.042-0.121,0.083-0.179,0.124c-0.077,0.054-0.156,0.107-0.231,0.163l-0.162,0.114
	c-0.558,0.402-1.134,0.818-1.708,1.211c-0.109,0.074-0.218,0.15-0.325,0.228c-0.203,0.142-0.414,0.29-0.619,0.423
	c-0.08,0.05-0.159,0.111-0.234,0.17c-0.14,0.107-0.33,0.257-0.444,0.257c-0.014,0-0.08-0.003-0.11-0.02
	c-0.149-0.085-0.31-0.248-0.31-0.379V6.338c0-0.192-0.099-0.353-0.291-0.368c-0.397-0.034-0.767-0.051-1.142-0.051
	c-3.268,0-5.038,1.267-5.959,2.329c0.343-1.546,1.244-2.697,2.681-3.434c1.543-0.792,3.289-0.879,3.966-0.879
	c0.197,0,0.312-0.027,0.317-0.025c0.009,0,0.019-0.035,0.027-0.035h0.125c0.201,0,0.274-0.096,0.274-0.298V1.91
	c0-0.171,0.213-0.38,0.36-0.395c0.148-0.01,0.364,0.137,0.541,0.268c0.061,0.047,0.135,0.093,0.193,0.132
	c0.361,0.244,0.729,0.509,1.08,0.765c0.312,0.229,0.636,0.463,0.962,0.687c0.298,0.205,0.593,0.415,0.889,0.625l0.305,0.215
	c0.54,0.367,0.634,0.471,0.634,0.689C18.188,5.13,17.993,5.298,17.547,5.591L17.547,5.591z M17.547,5.591"/>
<g opacity="0.6">
	<path fill="#7D7D7D" d="M40.989,25.438V1.968H28.383v7.824h-4.347v9.562h-1.738v-9.127H7.955v9.127H3.173v16.951h42.162V25.438
		H40.989z M9.259,11.53h11.735v1.738H9.259V11.53z M9.259,14.572h11.735v4.781H9.259V14.572z M16.213,20.658v6.085h-3.912v-6.085
		H16.213z M24.037,35.002H4.478V20.658h6.52v7.389h6.52v-7.389h6.52V35.002z M29.687,3.271h9.998v6.521h-9.998V3.271z
		 M34.034,11.096v6.52h-3.042v-6.52H34.034z M30.992,35.002h-5.65V11.096h4.346v7.824h5.65v-7.824h4.348v14.343h-8.693V35.002z
		 M44.032,35.002H32.295v-8.259h11.737V35.002z M44.032,35.002"/>
	<rect x="17.735" y="16.312" fill="#7D7D7D" width="1.738" height="1.304"/>
	<rect x="15.126" y="16.312" fill="#7D7D7D" width="1.739" height="1.304"/>
	<rect x="38.597" y="28.916" fill="#7D7D7D" width="3.477" height="1.304"/>
	<rect x="35.99" y="31.523" fill="#7D7D7D" width="6.085" height="1.305"/>
	<rect x="35.99" y="6.749" fill="#7D7D7D" width="1.739" height="1.304"/>
	<rect x="33.382" y="6.749" fill="#7D7D7D" width="1.739" height="1.304"/>
</g>
</svg>
