<?xml version="1.0" encoding="utf-8"?>
<!-- Generator: Adobe Illustrator 16.0.0, SVG Export Plug-In . SVG Version: 6.00 Build 0)  -->
<!DOCTYPE svg PUBLIC "-//W3C//DTD SVG 1.1//EN" "http://www.w3.org/Graphics/SVG/1.1/DTD/svg11.dtd">
<svg version="1.1" id="Layer_1" xmlns="http://www.w3.org/2000/svg" xmlns:xlink="http://www.w3.org/1999/xlink" x="0px" y="0px"
	 width="46.667px" height="38.416px" viewBox="0 0 46.667 38.416" enable-background="new 0 0 46.667 38.416" xml:space="preserve">
<g>
	<path fill="#7D7D7D" d="M34.045,20.734c-3.849,0-6.981,3.133-6.981,6.98c0,3.849,3.132,6.978,6.981,6.978
		c3.848,0,6.977-3.129,6.977-6.978C41.022,23.867,37.893,20.734,34.045,20.734L34.045,20.734z M34.045,33.531
		c-3.207,0-5.817-2.61-5.817-5.816c0-3.207,2.61-5.815,5.817-5.815c3.206,0,5.815,2.608,5.815,5.815
		C39.861,30.921,37.251,33.531,34.045,33.531L34.045,33.531z M34.045,33.531"/>
	<path fill="#7D7D7D" d="M37.535,27.133h-2.908v-2.909c0-0.32-0.261-0.581-0.582-0.581c-0.321,0-0.583,0.261-0.583,0.581v3.491
		c0,0.321,0.262,0.581,0.583,0.581h3.49c0.321,0,0.579-0.26,0.579-0.581S37.856,27.133,37.535,27.133L37.535,27.133z M37.535,27.133
		"/>
	<path opacity="0.7" fill="#7D7D7D" d="M22.996,13.175H11.363v16.866h11.632V19.572h10.467v-6.397H22.996z M28.229,14.336h4.07
		v4.073h-4.07V14.336z M17.758,14.336h4.073v4.073h-4.073V14.336z M12.524,14.336h4.072v4.073h-4.072V14.336z M12.524,19.572h4.072
		v4.07h-4.072V19.572z M16.596,28.877h-4.072v-4.07h4.072V28.877z M21.831,28.877h-4.073v-4.07h4.073V28.877z M21.831,23.643h-4.073
		v-4.07h4.073V23.643z M27.064,18.409h-4.068v-4.073h4.068V18.409z M27.064,18.409"/>
	<path opacity="0.7" fill="#7D7D7D" d="M26.482,32.949H8.455V10.267h27.917v7.56c0,0.321,0.26,0.583,0.581,0.583
		s0.583-0.262,0.583-0.583V3.868c0-0.321-0.262-0.581-0.583-0.581h-2.907V1.543c0-0.32-0.262-0.583-0.583-0.583H29.39
		c-0.321,0-0.579,0.263-0.579,0.583v1.744H16.014V1.543c0-0.32-0.26-0.583-0.582-0.583h-4.069c-0.324,0-0.583,0.263-0.583,0.583
		v1.744H7.873c-0.321,0-0.583,0.26-0.583,0.581v29.663c0,0.32,0.262,0.583,0.583,0.583h18.609c0.325,0,0.582-0.263,0.582-0.583
		C27.064,33.21,26.807,32.949,26.482,32.949L26.482,32.949z M29.973,2.124h2.907v3.487h-2.907V2.124z M11.942,2.124h2.908v3.487
		h-2.908V2.124z M8.455,4.45h2.325v1.744c0,0.321,0.259,0.582,0.583,0.582h4.069c0.322,0,0.582-0.261,0.582-0.582V4.45h12.797v1.744
		c0,0.321,0.258,0.582,0.579,0.582h4.072c0.321,0,0.583-0.261,0.583-0.582V4.45h2.326v4.652H8.455V4.45z M8.455,4.45"/>
</g>
</svg>
