<?xml version="1.0" encoding="utf-8"?>
<!-- Generator: Adobe Illustrator 16.0.0, SVG Export Plug-In . SVG Version: 6.00 Build 0)  -->
<!DOCTYPE svg PUBLIC "-//W3C//DTD SVG 1.1//EN" "http://www.w3.org/Graphics/SVG/1.1/DTD/svg11.dtd">
<svg version="1.1" id="Layer_1" xmlns="http://www.w3.org/2000/svg" xmlns:xlink="http://www.w3.org/1999/xlink" x="0px" y="0px"
	 width="46.667px" height="38.416px" viewBox="0 0 46.667 38.416" enable-background="new 0 0 46.667 38.416" xml:space="preserve">
<g>
	<path opacity="0.6" fill="#7D7D7D" d="M39.726,32.923H6.449c-0.7,0-1.248,0.578-1.248,1.246c0,0.669,0.578,1.247,1.248,1.247
		h33.307c0.7,0,1.247-0.578,1.247-1.247C41.003,33.501,40.425,32.923,39.726,32.923L39.726,32.923z M39.726,32.923"/>
	<path fill="#7D7D7D" d="M27.343,1.013c-0.127-0.127-0.301-0.198-0.487-0.198c-0.193,0-0.379,0.076-0.525,0.213L22.268,5.12
		L5.963,21.396c-0.078,0.09-0.202,0.275-0.202,0.485l-0.03,5.935c0,0.197,0.074,0.385,0.201,0.513c0.135,0.135,0.293,0.2,0.485,0.2
		l5.898-0.028c0.194,0,0.354-0.067,0.489-0.202l20.38-20.38c0.272-0.271,0.267-0.717-0.013-1.015L27.343,1.013z M12.066,27.063
		l-4.935,0.036l0.036-4.903L22.753,6.609l4.899,4.901L12.066,27.063z M28.654,10.506l-4.898-4.896l3.104-3.106l4.899,4.899
		L28.654,10.506z"/>
</g>
</svg>
