<?xml version="1.0" encoding="utf-8"?>
<!-- Generator: Adobe Illustrator 16.0.0, SVG Export Plug-In . SVG Version: 6.00 Build 0)  -->
<!DOCTYPE svg PUBLIC "-//W3C//DTD SVG 1.1//EN" "http://www.w3.org/Graphics/SVG/1.1/DTD/svg11.dtd">
<svg version="1.1" id="Layer_1" xmlns="http://www.w3.org/2000/svg" xmlns:xlink="http://www.w3.org/1999/xlink" x="0px" y="0px"
	 width="46.667px" height="38.333px" viewBox="0 0 46.667 38.333" enable-background="new 0 0 46.667 38.333" xml:space="preserve">
<g>
	<g>
		<g>
			<path fill="#7D7D7D" d="M44.998,30.745h-14.66c-0.196,0-0.354-0.158-0.354-0.354c0-0.196,0.157-0.353,0.354-0.353h14.285
				c-0.029-0.544-0.083-1.545-0.115-2.027c-0.069-1.039-2.089-1.933-2.953-2.314c-0.188-0.083-0.335-0.148-0.441-0.202
				c-1.074-0.548-1.499-0.729-2.229-0.995c-1.542-0.567-2.89-0.833-2.905-0.836c-0.191-0.036-0.316-0.221-0.278-0.414
				c0.036-0.192,0.223-0.315,0.414-0.278c0.056,0.011,1.419,0.278,3.011,0.863c0.762,0.278,1.199,0.467,2.307,1.03
				c0.089,0.046,0.236,0.11,0.406,0.188c1.146,0.506,3.275,1.446,3.373,2.911c0.046,0.685,0.135,2.392,0.135,2.41
				c0.005,0.097-0.029,0.191-0.096,0.262C45.185,30.705,45.095,30.745,44.998,30.745z"/>
			<path fill="#7D7D7D" d="M33.083,30.663c-0.167,0-0.315-0.122-0.347-0.293l-0.402-2.262l-2.314-4.773
				c-0.086-0.177-0.012-0.388,0.163-0.473c0.176-0.086,0.386-0.012,0.472,0.164l2.336,4.817c0.014,0.03,0.022,0.061,0.029,0.092
				l0.413,2.312c0.034,0.189-0.095,0.375-0.287,0.408C33.125,30.661,33.105,30.663,33.083,30.663z"/>
			<path fill="#7D7D7D" d="M32.734,27.92c-0.073,0-0.146-0.023-0.208-0.068c-0.158-0.114-0.192-0.335-0.079-0.493l3.64-4.995
				l-0.683-2.065c-0.061-0.186,0.04-0.385,0.225-0.446c0.187-0.06,0.385,0.039,0.445,0.226l0.741,2.236
				c0.036,0.108,0.017,0.228-0.051,0.319l-3.746,5.142C32.95,27.868,32.842,27.92,32.734,27.92z"/>
			<path fill="#7D7D7D" d="M40.308,12.593h-9.97c-0.196,0-0.354-0.158-0.354-0.354c0-0.195,0.157-0.352,0.354-0.352h9.97
				c0.194,0,0.352,0.156,0.352,0.352C40.66,12.435,40.502,12.593,40.308,12.593z"/>
			<path fill="#7D7D7D" d="M30.338,23.532c-0.181,0-0.335-0.136-0.353-0.319c-0.02-0.191,0.124-0.364,0.319-0.385
				c0.01-0.001,1.063-0.108,2.333-0.733c1.688-0.828,2.946-2.126,3.737-3.86c0.011-0.022,1.019-2.292,0.764-5.566
				c-0.015-0.194,0.131-0.364,0.326-0.379c0.192-0.017,0.364,0.128,0.379,0.325c0.269,3.464-0.781,5.815-0.826,5.913
				c-1.078,2.362-2.822,3.596-4.097,4.215c-1.382,0.673-2.502,0.783-2.55,0.789C30.36,23.532,30.348,23.532,30.338,23.532z"/>
			<path fill="#7D7D7D" d="M38.987,12.529c-0.004,0-0.009,0-0.014,0c-0.195-0.007-0.347-0.172-0.339-0.366l0,0
				c0-0.016,0.047-1.672-0.697-3.537c-0.985-2.475-2.83-4.137-5.479-4.938c-0.187-0.057-0.292-0.255-0.235-0.441
				c0.056-0.188,0.255-0.292,0.44-0.235c3.582,1.084,5.208,3.525,5.942,5.38c0.791,2.001,0.737,3.727,0.734,3.797
				C39.332,12.379,39.176,12.529,38.987,12.529z"/>
			<path fill="#7D7D7D" d="M34.708,7.387c-0.092,0-0.182-0.037-0.248-0.103c-0.082-0.083-0.118-0.197-0.1-0.313l0.383-2.164
				c0.034-0.19,0.218-0.319,0.409-0.286c0.192,0.035,0.32,0.219,0.285,0.409l-0.292,1.662l1.736-0.318
				c0.191-0.035,0.376,0.091,0.412,0.284c0.035,0.19-0.092,0.374-0.283,0.41l-2.238,0.413C34.751,7.384,34.73,7.387,34.708,7.387z"
				/>
		</g>
		<g>
			<path fill="#7D7D7D" d="M30.566,30.745H15.907c-0.098,0-0.188-0.04-0.256-0.109c-0.066-0.07-0.101-0.165-0.095-0.262
				c0-0.019,0.088-1.726,0.135-2.41c0.096-1.465,2.227-2.405,3.371-2.911c0.169-0.077,0.319-0.142,0.406-0.188
				c1.108-0.563,1.547-0.752,2.307-1.03c1.594-0.585,2.956-0.853,3.014-0.863c0.19-0.037,0.377,0.086,0.414,0.278
				c0.037,0.193-0.089,0.377-0.28,0.414c-0.013,0.003-1.365,0.27-2.904,0.836c-0.729,0.267-1.154,0.447-2.228,0.995
				c-0.108,0.054-0.255,0.119-0.441,0.202c-0.864,0.382-2.884,1.275-2.954,2.314c-0.033,0.482-0.087,1.483-0.115,2.027h14.286
				c0.196,0,0.354,0.156,0.354,0.353C30.92,30.587,30.762,30.745,30.566,30.745z"/>
			<path fill="#7D7D7D" d="M27.819,30.663c-0.021,0-0.042-0.002-0.063-0.008c-0.192-0.033-0.32-0.219-0.285-0.408l0.413-2.312
				c0.005-0.031,0.015-0.062,0.029-0.092l2.336-4.817c0.085-0.176,0.296-0.25,0.471-0.164c0.176,0.085,0.249,0.296,0.165,0.473
				l-2.314,4.773l-0.404,2.262C28.137,30.541,27.988,30.663,27.819,30.663z"/>
			<path fill="#7D7D7D" d="M28.17,27.92c-0.108,0-0.217-0.052-0.285-0.146l-3.748-5.142c-0.066-0.092-0.084-0.211-0.049-0.319
				l0.739-2.236c0.063-0.187,0.261-0.285,0.448-0.226c0.185,0.062,0.284,0.261,0.225,0.446l-0.683,2.065l3.639,4.995
				c0.115,0.158,0.081,0.379-0.078,0.493C28.314,27.896,28.243,27.92,28.17,27.92z"/>
			<path fill="#7D7D7D" d="M30.566,12.593h-9.97c-0.194,0-0.352-0.158-0.352-0.354c0-0.195,0.158-0.352,0.352-0.352h9.97
				c0.196,0,0.354,0.156,0.354,0.352C30.92,12.435,30.762,12.593,30.566,12.593z"/>
			<path fill="#7D7D7D" d="M30.566,23.532c-0.01,0-0.022,0-0.034-0.001c-0.044-0.006-1.166-0.116-2.548-0.789
				c-1.275-0.619-3.02-1.853-4.097-4.215c-0.046-0.098-1.094-2.449-0.826-5.913c0.016-0.197,0.186-0.342,0.379-0.325
				c0.195,0.015,0.34,0.185,0.326,0.379c-0.255,3.287,0.753,5.544,0.764,5.566c1.895,4.153,6.029,4.59,6.071,4.594
				c0.193,0.02,0.336,0.193,0.317,0.385C30.901,23.396,30.748,23.532,30.566,23.532z"/>
			<path fill="#7D7D7D" d="M21.916,12.529c-0.186,0-0.342-0.147-0.35-0.337c-0.004-0.07-0.074-1.739,0.672-3.695
				c0.694-1.816,2.249-4.22,5.72-5.367c0.187-0.06,0.386,0.041,0.448,0.226c0.062,0.186-0.039,0.385-0.225,0.446
				c-2.566,0.847-4.342,2.504-5.273,4.922c-0.701,1.823-0.639,3.42-0.637,3.436c0.008,0.194-0.143,0.359-0.338,0.369
				C21.928,12.529,21.922,12.529,21.916,12.529z"/>
			<path fill="#7D7D7D" d="M26.197,7.387c-0.023,0-0.043-0.003-0.065-0.005l-2.238-0.413c-0.192-0.036-0.319-0.22-0.284-0.41
				c0.035-0.193,0.221-0.319,0.413-0.284l1.735,0.318l-0.295-1.662c-0.032-0.19,0.097-0.374,0.288-0.409
				c0.192-0.033,0.376,0.096,0.41,0.286l0.382,2.164c0.021,0.115-0.016,0.229-0.099,0.313C26.378,7.35,26.287,7.387,26.197,7.387z"
				/>
			<path fill="#7D7D7D" d="M32.249,6.127c-0.194,0-0.356-0.156-0.356-0.354V2.725c0-0.012,0.002-0.021,0.004-0.034
				c0.008-0.128-0.017-0.441-0.448-0.492l0,0C31.436,2.199,31.42,2.2,31.405,2.2h-2.49c-0.016,0-0.031-0.001-0.046-0.002h-0.001
				c-0.43,0.051-0.454,0.364-0.445,0.497c0.001,0.013,0.001,0.018,0.001,0.029v3.048c0,0.198-0.157,0.354-0.354,0.354
				c-0.194,0-0.353-0.156-0.353-0.354V2.741c-0.035-0.45,0.217-1.143,1.066-1.245c0.365-0.044,0.889-0.052,1.376-0.045
				c0.485-0.007,1.012,0.001,1.376,0.045c0.85,0.103,1.102,0.795,1.065,1.245v3.031C32.601,5.971,32.443,6.127,32.249,6.127z"/>
		</g>
	</g>
	<g opacity="0.6">
		<g>
			<path fill="#7D7D7D" d="M15.038,24.729H8.18c-0.093,0-0.167-0.074-0.167-0.165c0-0.093,0.074-0.166,0.167-0.166h6.683
				c-0.013-0.254-0.039-0.723-0.053-0.948c-0.033-0.486-0.978-0.904-1.381-1.083c-0.088-0.039-0.156-0.069-0.208-0.094
				c-0.502-0.258-0.701-0.342-1.043-0.468c-0.72-0.265-1.352-0.389-1.358-0.389c-0.089-0.019-0.148-0.104-0.131-0.195
				c0.018-0.089,0.104-0.148,0.194-0.13c0.026,0.005,0.664,0.13,1.409,0.403c0.355,0.13,0.561,0.219,1.079,0.482
				c0.042,0.021,0.111,0.052,0.191,0.087c0.535,0.237,1.532,0.679,1.577,1.363c0.021,0.321,0.063,1.119,0.064,1.128
				c0.002,0.045-0.014,0.089-0.046,0.122C15.126,24.71,15.083,24.729,15.038,24.729z"/>
			<path fill="#7D7D7D" d="M9.464,24.689c-0.079,0-0.148-0.057-0.163-0.137l-0.189-1.059L8.03,21.261
				c-0.04-0.082-0.006-0.182,0.077-0.221c0.082-0.039,0.18-0.007,0.221,0.076L9.42,23.37c0.007,0.014,0.011,0.028,0.014,0.043
				l0.193,1.081c0.015,0.091-0.044,0.176-0.134,0.192C9.484,24.688,9.474,24.689,9.464,24.689z"/>
			<path fill="#7D7D7D" d="M9.3,23.406c-0.034,0-0.068-0.011-0.097-0.032c-0.074-0.054-0.09-0.158-0.037-0.23l1.703-2.338
				l-0.32-0.966c-0.027-0.087,0.02-0.18,0.105-0.208c0.087-0.029,0.18,0.017,0.208,0.104l0.347,1.046
				c0.017,0.051,0.007,0.107-0.023,0.149l-1.753,2.406C9.401,23.382,9.351,23.406,9.3,23.406z"/>
			<path fill="#7D7D7D" d="M12.845,16.234H8.18c-0.093,0-0.167-0.073-0.167-0.166c0-0.09,0.074-0.165,0.167-0.165h4.665
				c0.09,0,0.165,0.075,0.165,0.165C13.009,16.161,12.935,16.234,12.845,16.234z"/>
			<path fill="#7D7D7D" d="M8.18,21.354c-0.086,0-0.157-0.064-0.166-0.15c-0.008-0.09,0.058-0.171,0.149-0.18
				c0.005,0,0.497-0.052,1.091-0.343c0.79-0.388,1.378-0.995,1.749-1.807c0.005-0.009,0.477-1.072,0.357-2.604
				c-0.007-0.091,0.062-0.171,0.152-0.178c0.09-0.008,0.17,0.061,0.178,0.152c0.125,1.62-0.366,2.72-0.386,2.766
				c-0.505,1.105-1.32,1.684-1.917,1.974c-0.647,0.313-1.171,0.366-1.194,0.368C8.19,21.354,8.184,21.354,8.18,21.354z"/>
			<path fill="#7D7D7D" d="M12.227,16.204c-0.002,0-0.005,0-0.006,0c-0.092-0.002-0.164-0.08-0.159-0.171l0,0
				c0-0.007,0.022-0.781-0.326-1.655c-0.461-1.158-1.324-1.935-2.564-2.312c-0.087-0.025-0.136-0.117-0.11-0.205
				c0.026-0.087,0.12-0.138,0.207-0.11c1.676,0.508,2.436,1.648,2.78,2.518c0.37,0.935,0.346,1.743,0.344,1.777
				C12.388,16.136,12.314,16.204,12.227,16.204z"/>
			<path fill="#7D7D7D" d="M10.225,13.799c-0.043,0-0.085-0.018-0.117-0.05c-0.039-0.036-0.056-0.092-0.047-0.145l0.18-1.013
				c0.017-0.089,0.101-0.15,0.191-0.134c0.09,0.016,0.15,0.101,0.134,0.191l-0.137,0.778l0.813-0.15
				c0.09-0.017,0.176,0.044,0.193,0.134c0.015,0.089-0.044,0.176-0.133,0.191l-1.048,0.192
				C10.244,13.798,10.234,13.799,10.225,13.799z"/>
		</g>
		<g>
			<path fill="#7D7D7D" d="M8.286,24.729H1.427c-0.045,0-0.088-0.019-0.12-0.052S1.26,24.6,1.263,24.555
				c0-0.009,0.042-0.807,0.063-1.128c0.046-0.685,1.042-1.126,1.578-1.363c0.08-0.035,0.148-0.065,0.189-0.087
				c0.519-0.264,0.725-0.353,1.08-0.482c0.746-0.273,1.383-0.398,1.41-0.403c0.089-0.019,0.176,0.041,0.193,0.13
				c0.017,0.091-0.041,0.177-0.131,0.195c-0.006,0-0.639,0.124-1.359,0.389c-0.341,0.126-0.54,0.21-1.042,0.468
				c-0.05,0.024-0.12,0.055-0.207,0.094c-0.404,0.179-1.349,0.597-1.382,1.083c-0.015,0.226-0.041,0.694-0.054,0.948h6.685
				c0.092,0,0.166,0.073,0.166,0.166C8.452,24.654,8.378,24.729,8.286,24.729z"/>
			<path fill="#7D7D7D" d="M7,24.689c-0.01,0-0.02-0.001-0.029-0.003c-0.09-0.017-0.15-0.102-0.134-0.192l0.193-1.081
				c0.002-0.015,0.007-0.029,0.013-0.043l1.092-2.254c0.041-0.083,0.14-0.115,0.222-0.076c0.082,0.039,0.117,0.139,0.077,0.221
				l-1.083,2.233l-0.188,1.059C7.149,24.633,7.08,24.689,7,24.689z"/>
			<path fill="#7D7D7D" d="M7.165,23.406c-0.051,0-0.101-0.024-0.133-0.068l-1.755-2.406c-0.029-0.042-0.04-0.099-0.022-0.149
				l0.346-1.046c0.029-0.088,0.123-0.134,0.209-0.104c0.087,0.028,0.133,0.121,0.105,0.208l-0.319,0.966l1.703,2.338
				c0.053,0.072,0.037,0.177-0.037,0.23C7.232,23.396,7.199,23.406,7.165,23.406z"/>
			<path fill="#7D7D7D" d="M8.286,16.234H3.621c-0.091,0-0.166-0.073-0.166-0.166c0-0.09,0.075-0.165,0.166-0.165h4.665
				c0.092,0,0.166,0.075,0.166,0.165C8.452,16.161,8.378,16.234,8.286,16.234z"/>
			<path fill="#7D7D7D" d="M8.286,21.354c-0.004,0-0.01,0-0.017-0.001c-0.021-0.002-0.545-0.055-1.191-0.368
				c-0.597-0.29-1.413-0.868-1.917-1.974c-0.021-0.046-0.512-1.146-0.386-2.766c0.006-0.092,0.086-0.16,0.178-0.152
				c0.09,0.007,0.158,0.087,0.152,0.178c-0.121,1.537,0.352,2.594,0.356,2.604c0.887,1.942,2.82,2.148,2.841,2.149
				c0.09,0.009,0.157,0.09,0.148,0.18C8.442,21.289,8.371,21.354,8.286,21.354z"/>
			<path fill="#7D7D7D" d="M4.238,16.204c-0.087,0-0.161-0.068-0.165-0.156c-0.001-0.034-0.034-0.814,0.316-1.73
				c0.324-0.849,1.051-1.973,2.676-2.51c0.087-0.028,0.18,0.018,0.208,0.104c0.029,0.087-0.019,0.18-0.104,0.209
				c-1.202,0.396-2.031,1.172-2.468,2.303c-0.328,0.853-0.298,1.601-0.297,1.608c0.003,0.091-0.067,0.168-0.157,0.172
				C4.245,16.204,4.241,16.204,4.238,16.204z"/>
			<path fill="#7D7D7D" d="M6.241,13.799c-0.01,0-0.021-0.001-0.03-0.004l-1.047-0.192c-0.09-0.016-0.149-0.103-0.133-0.191
				c0.016-0.09,0.102-0.15,0.193-0.134l0.812,0.15l-0.138-0.778c-0.017-0.091,0.044-0.176,0.134-0.191
				c0.09-0.017,0.176,0.045,0.192,0.134l0.179,1.013c0.009,0.053-0.008,0.108-0.047,0.145C6.326,13.781,6.284,13.799,6.241,13.799z"
				/>
			<path fill="#7D7D7D" d="M9.073,13.21c-0.091,0-0.166-0.074-0.166-0.166v-1.426c0-0.006,0.001-0.011,0.001-0.017
				c0.004-0.06-0.007-0.206-0.208-0.231l0,0c-0.007,0.001-0.014,0.001-0.021,0.001H7.512c-0.007,0-0.013,0-0.02-0.001H7.491
				c-0.201,0.025-0.212,0.172-0.208,0.233c0,0.006,0,0.009,0,0.015v1.426c0,0.092-0.074,0.166-0.165,0.166
				c-0.091,0-0.165-0.074-0.165-0.166v-1.419c-0.018-0.212,0.101-0.534,0.499-0.583c0.17-0.02,0.416-0.024,0.644-0.021
				c0.227-0.003,0.473,0.002,0.644,0.021c0.396,0.049,0.515,0.371,0.499,0.583v1.419C9.238,13.136,9.164,13.21,9.073,13.21z"/>
		</g>
	</g>
	<path opacity="0.6" fill="#7D7D7D" d="M20.298,7.979l-0.194-0.137c-0.193-0.137-0.386-0.274-0.583-0.408
		c-0.206-0.143-0.412-0.294-0.612-0.439c-0.231-0.169-0.468-0.344-0.71-0.507c-0.034-0.021-0.066-0.047-0.101-0.073
		c-0.173-0.129-0.425-0.295-0.702-0.267c-0.374,0.036-0.664,0.416-0.664,0.733v0.837c0,0-0.01,0-0.033,0
		c-0.818,0-4.881,0.206-4.881,4.281c0,0.117,0.092,0.217,0.208,0.236c0.013,0.002,0.031,0.004,0.043,0.004
		c0.1,0,0.195-0.063,0.229-0.161c0.03-0.087,0.747-2.113,3.966-2.113c0.162,0,0.349,0.005,0.468,0.016v0.781
		c0,0.261,0.192,0.52,0.443,0.663c0.087,0.049,0.195,0.074,0.292,0.074c0.238,0,0.438-0.146,0.591-0.267
		c0.041-0.031,0.084-0.063,0.121-0.087c0.142-0.091,0.286-0.189,0.421-0.286c0.07-0.048,0.139-0.097,0.208-0.144
		c0.376-0.259,0.755-0.53,1.12-0.792l0.105-0.075c0.046-0.034,0.096-0.067,0.143-0.102c0.04-0.026,0.08-0.056,0.113-0.079
		c0.28-0.182,0.627-0.409,0.627-0.846C20.916,8.401,20.626,8.206,20.298,7.979L20.298,7.979z M20.018,9.273
		c-0.038,0.028-0.076,0.055-0.115,0.081c-0.05,0.035-0.102,0.07-0.15,0.106l-0.104,0.074c-0.364,0.261-0.739,0.531-1.11,0.786
		c-0.071,0.049-0.141,0.098-0.212,0.146c-0.132,0.094-0.268,0.189-0.402,0.276c-0.052,0.032-0.104,0.071-0.152,0.11
		c-0.09,0.069-0.213,0.167-0.288,0.167c-0.008,0-0.052-0.003-0.071-0.013c-0.098-0.055-0.201-0.161-0.201-0.246V9.759
		c0-0.124-0.065-0.229-0.189-0.239c-0.259-0.022-0.5-0.033-0.743-0.033c-2.122,0-3.273,0.823-3.872,1.515
		c0.224-1.005,0.808-1.753,1.742-2.231c1.003-0.515,2.138-0.571,2.578-0.571c0.127,0,0.203-0.018,0.207-0.018
		c0.005,0,0.012-0.021,0.017-0.021h0.08c0.133,0,0.18-0.063,0.18-0.194V6.882c0-0.11,0.139-0.247,0.233-0.256
		c0.095-0.007,0.238,0.088,0.353,0.173c0.04,0.031,0.087,0.061,0.126,0.086c0.234,0.159,0.474,0.33,0.701,0.497
		c0.203,0.147,0.413,0.301,0.625,0.447c0.193,0.134,0.386,0.27,0.579,0.405l0.197,0.139c0.351,0.239,0.413,0.307,0.413,0.45
		C20.436,8.975,20.309,9.084,20.018,9.273L20.018,9.273z M20.018,9.273"/>
</g>
</svg>
