<?xml version="1.0" encoding="utf-8"?>
<!-- Generator: Adobe Illustrator 16.0.0, SVG Export Plug-In . SVG Version: 6.00 Build 0)  -->
<!DOCTYPE svg PUBLIC "-//W3C//DTD SVG 1.1//EN" "http://www.w3.org/Graphics/SVG/1.1/DTD/svg11.dtd">
<svg version="1.1" id="Layer_1" xmlns="http://www.w3.org/2000/svg" xmlns:xlink="http://www.w3.org/1999/xlink" x="0px" y="0px"
	 width="117.172px" height="99.643px" viewBox="0 -14.311 117.172 99.643" enable-background="new 0 -14.311 117.172 99.643"
	 xml:space="preserve">
<g>
	<path fill="#2494F2" d="M112.589,21.824l-0.918-0.651c-0.919-0.651-1.841-1.302-2.769-1.943c-0.976-0.674-1.959-1.392-2.907-2.085
		c-1.098-0.802-2.229-1.631-3.379-2.409c-0.153-0.103-0.313-0.223-0.479-0.346c-0.823-0.614-2.021-1.398-3.333-1.266
		c-1.777,0.174-3.158,1.977-3.158,3.485v3.979c0,0-0.048,0-0.155,0c-3.885,0-23.193,0.979-23.193,20.344
		c0,0.556,0.441,1.027,0.987,1.119c0.062,0.014,0.146,0.018,0.205,0.018c0.479,0,0.925-0.302,1.086-0.767
		c0.143-0.407,3.548-10.039,18.842-10.039c0.769,0,1.658,0.025,2.229,0.075v3.713c0,1.236,0.911,2.475,2.104,3.151
		c0.419,0.233,0.933,0.357,1.395,0.357c1.13,0,2.07-0.703,2.801-1.268c0.195-0.154,0.397-0.3,0.575-0.412
		c0.675-0.438,1.355-0.908,2.003-1.363c0.326-0.23,0.657-0.461,0.983-0.682c1.786-1.229,3.588-2.521,5.32-3.769l0.5-0.357
		c0.223-0.161,0.454-0.316,0.682-0.475c0.189-0.132,0.381-0.268,0.536-0.376c1.328-0.867,2.981-1.95,2.981-4.028
		C115.528,23.825,114.16,22.895,112.589,21.824L112.589,21.824z M111.265,27.973c-0.179,0.128-0.365,0.257-0.553,0.383
		c-0.236,0.167-0.477,0.331-0.715,0.503l-0.493,0.354c-1.726,1.242-3.51,2.523-5.28,3.739c-0.334,0.228-0.669,0.464-1.003,0.698
		c-0.627,0.443-1.274,0.9-1.913,1.307c-0.243,0.158-0.487,0.345-0.721,0.528c-0.429,0.333-1.018,0.789-1.368,0.789
		c-0.045,0-0.247-0.007-0.342-0.058c-0.459-0.263-0.951-0.766-0.951-1.174v-4.767c0-0.591-0.312-1.083-0.897-1.135
		c-1.229-0.106-2.37-0.16-3.529-0.16c-10.087,0-15.557,3.916-18.396,7.194c1.056-4.773,3.839-8.327,8.275-10.601
		c4.77-2.447,10.157-2.71,12.247-2.71c0.606,0,0.964-0.088,0.981-0.086c0.027,0,0.057-0.107,0.079-0.107h0.387
		c0.627,0,0.854-0.295,0.854-0.92v-5.143c0-0.525,0.654-1.174,1.104-1.219c0.457-0.031,1.129,0.419,1.675,0.825
		c0.193,0.146,0.419,0.285,0.6,0.406c1.115,0.757,2.248,1.571,3.328,2.364c0.965,0.703,1.966,1.431,2.969,2.119
		c0.919,0.635,1.835,1.282,2.749,1.928l0.94,0.666c1.666,1.133,1.957,1.453,1.957,2.129
		C113.246,26.55,112.647,27.067,111.265,27.973L111.265,27.973z"/>
	<g>
		<path fill="#2494F2" d="M60.969,70.178c-3.355,0-6.551-1.271-8.982-3.571c-2.412-2.281-3.864-5.361-4.092-8.68l-0.081-0.754
			c-0.003-0.054-0.006-0.106-0.006-0.158c0-1.184,0.176-2.393,0.533-3.61L25.765,30.822c-1.213,0.357-2.429,0.538-3.616,0.538
			c-0.045,0-0.096-0.002-0.146-0.009l-0.762-0.077c-3.316-0.228-6.4-1.68-8.678-4.093c-2.301-2.436-3.574-5.626-3.574-8.986
			c0-1.922,0.441-3.822,1.313-5.646c0.215-0.443,0.627-0.758,1.115-0.84c0.484-0.083,0.98,0.075,1.331,0.419l7.734,7.734
			c0.223,0.222,0.498,0.392,0.867,0.533c0.287,0.109,0.561,0.166,0.802,0.166c0.636,0,1.225-0.248,1.674-0.694
			c0.641-0.642,0.847-1.621,0.522-2.493c-0.128-0.347-0.297-0.625-0.522-0.85l-7.736-7.739c-0.347-0.346-0.504-0.839-0.422-1.328
			c0.083-0.485,0.396-0.901,0.843-1.111c1.816-0.874,3.718-1.314,5.642-1.314c3.362,0,6.552,1.271,8.988,3.573
			c2.411,2.282,3.862,5.362,4.096,8.679l0.075,0.764c0.005,0.049,0.01,0.1,0.01,0.147c0,1.19-0.183,2.402-0.542,3.618L57.354,44.39
			c1.213-0.358,2.422-0.54,3.613-0.54c0.049,0,0.1,0.003,0.152,0.01l0.757,0.074c3.316,0.232,6.397,1.684,8.678,4.095
			c2.304,2.439,3.573,5.63,3.578,8.984c0,1.932-0.443,3.83-1.313,5.652c-0.212,0.439-0.63,0.755-1.113,0.837
			c-0.487,0.083-0.982-0.075-1.331-0.423l-7.735-7.735c-0.007-0.006-0.013-0.012-0.019-0.014c-0.201-0.211-0.474-0.376-0.834-0.511
			c-0.302-0.112-0.567-0.169-0.821-0.169c-0.625,0-1.235,0.249-1.661,0.688c-0.652,0.649-0.861,1.623-0.543,2.49
			c0.135,0.351,0.317,0.638,0.532,0.857l7.739,7.735c0.346,0.346,0.507,0.841,0.424,1.326c-0.085,0.482-0.394,0.899-0.836,1.111
			C64.824,69.738,62.919,70.178,60.969,70.178z M50.845,56.94l0.071,0.703c0.002,0.021,0.002,0.034,0.007,0.056
			c0.351,5.295,4.764,9.443,10.046,9.443c0.755,0,1.5-0.089,2.229-0.262l-6.045-6.049c-0.523-0.521-0.938-1.168-1.226-1.921
			c-0.004-0.006-0.004-0.013-0.005-0.017c-0.737-1.984-0.25-4.221,1.232-5.699c0.987-1.001,2.382-1.578,3.813-1.578
			c0.62,0,1.253,0.12,1.888,0.359c0.782,0.293,1.421,0.694,1.938,1.229l6.035,6.039c0.177-0.738,0.266-1.479,0.266-2.229
			c-0.002-5.278-4.154-9.695-9.455-10.053c-0.012,0-0.025-0.003-0.041-0.003l-0.705-0.071c-1.116,0.009-2.267,0.231-3.427,0.663
			c-0.561,0.203-1.186,0.068-1.601-0.353L31.969,23.297c-0.419-0.421-0.56-1.046-0.353-1.601c0.43-1.164,0.653-2.315,0.662-3.425
			l-0.067-0.706c-0.006-0.02-0.006-0.032-0.006-0.051c-0.361-5.293-4.774-9.441-10.056-9.441c-0.743,0-1.487,0.085-2.225,0.26
			l6.047,6.044c0.537,0.54,0.948,1.196,1.223,1.953c0.729,1.97,0.251,4.203-1.219,5.683c-1.024,1.02-2.383,1.583-3.826,1.583
			c-0.608,0-1.241-0.118-1.875-0.358c-0.788-0.302-1.421-0.703-1.943-1.231l-6.043-6.036c-0.176,0.736-0.26,1.481-0.26,2.226
			c0,5.279,4.145,9.696,9.441,10.056c0.02,0,0.033,0,0.046,0.003l0.709,0.071c1.111-0.01,2.261-0.231,3.429-0.661
			c0.556-0.204,1.177-0.07,1.598,0.352l23.898,23.899c0.416,0.417,0.553,1.036,0.352,1.587
			C51.066,54.698,50.853,55.817,50.845,56.94z"/>
		<g opacity="0.6">
			<g>
				<path fill="#2494F2" d="M11.931,73.002c-2.152,0-4.171-0.835-5.69-2.354c-3.134-3.135-3.134-8.235,0-11.372l21.605-21.603
					c0.569-0.57,1.495-0.57,2.068,0l9.308,9.297c0.275,0.274,0.428,0.648,0.428,1.034c0,0.389-0.154,0.761-0.428,1.034
					L17.618,70.649C16.101,72.167,14.08,73.002,11.931,73.002z M28.879,40.776L8.309,61.345c-1.994,1.997-1.994,5.241,0,7.236
					c0.967,0.967,2.251,1.498,3.622,1.498c1.368,0,2.653-0.531,3.618-1.498l20.568-20.575L28.879,40.776z"/>
			</g>
			<path fill="#2494F2" d="M49.817,33.195L49.817,33.195c-0.389,0-0.763-0.155-1.035-0.431l-4.642-4.65
				c-0.571-0.572-0.571-1.496,0-2.065l11.286-11.3l4.769-9.197c0.14-0.269,0.357-0.489,0.625-0.627l9.519-4.931
				c0.568-0.292,1.258-0.187,1.71,0.266l4.592,4.593c0.45,0.452,0.558,1.141,0.265,1.707l-4.925,9.523
				c-0.139,0.271-0.359,0.488-0.627,0.628l-9.21,4.76L50.854,32.766C50.577,33.038,50.205,33.195,49.817,33.195z M47.242,27.08
				l2.575,2.579L60.233,19.24c0.105-0.108,0.228-0.199,0.363-0.267l8.994-4.653l4.221-8.157L70.73,3.083l-8.155,4.222l-4.659,8.99
				c-0.068,0.132-0.156,0.253-0.263,0.361L47.242,27.08z"/>
		</g>
	</g>
	<path fill="#2494F2" d="M9.877,20.193c0.476-0.099,0.963-0.17,1.454-0.228C10.839,20.023,10.353,20.095,9.877,20.193z"/>
	<path fill="#2494F2" d="M11.523,19.937c0.555-0.058,1.116-0.087,1.685-0.087C12.64,19.849,12.078,19.879,11.523,19.937z"/>
	<path opacity="0.6" fill="#83BCE6" enable-background="new    " d="M11.331,19.965c0.065-0.007,0.127-0.022,0.192-0.029
		C11.458,19.943,11.395,19.958,11.331,19.965z"/>
	<path opacity="0.6" fill="#83BCE6" enable-background="new    " d="M9.807,20.214c0.024-0.007,0.047-0.017,0.07-0.021
		C9.853,20.198,9.83,20.207,9.807,20.214z"/>
</g>
</svg>
