<?xml version="1.0" encoding="utf-8"?>
<!-- Generator: Adobe Illustrator 16.0.0, SVG Export Plug-In . SVG Version: 6.00 Build 0)  -->
<!DOCTYPE svg PUBLIC "-//W3C//DTD SVG 1.1//EN" "http://www.w3.org/Graphics/SVG/1.1/DTD/svg11.dtd">
<svg version="1.1" id="Layer_1" xmlns="http://www.w3.org/2000/svg" xmlns:xlink="http://www.w3.org/1999/xlink" x="0px" y="0px"
	 width="81px" height="70.333px" viewBox="0 0 81 70.333" enable-background="new 0 0 81 70.333" xml:space="preserve">
<g>
	<path opacity="0.6" fill="#2494F2" enable-background="new    " d="M66.607,25.219l-1.098-0.779
		c-1.102-0.779-2.203-1.561-3.315-2.328c-1.167-0.807-2.343-1.666-3.479-2.497c-1.313-0.959-2.67-1.952-4.045-2.882
		c-0.184-0.124-0.376-0.267-0.574-0.413c-0.985-0.737-2.42-1.675-3.988-1.517c-2.129,0.208-3.781,2.365-3.781,4.173v4.762
		c0,0-0.058,0-0.186,0c-4.65,0-27.762,1.173-27.762,24.352c0,0.666,0.526,1.23,1.179,1.342c0.075,0.016,0.174,0.02,0.248,0.02
		c0.572,0,1.106-0.361,1.3-0.918c0.171-0.49,4.248-12.018,22.554-12.018c0.92,0,1.984,0.029,2.666,0.09v4.443
		c0,1.48,1.092,2.962,2.518,3.773c0.501,0.279,1.117,0.426,1.669,0.426c1.354,0,2.481-0.841,3.353-1.518
		c0.234-0.184,0.479-0.359,0.689-0.492c0.809-0.523,1.622-1.088,2.396-1.631c0.391-0.277,0.785-0.555,1.178-0.818
		c2.139-1.473,4.295-3.018,6.369-4.512l0.598-0.426c0.267-0.193,0.543-0.38,0.816-0.569c0.228-0.159,0.457-0.319,0.643-0.45
		c1.589-1.038,3.568-2.334,3.568-4.822C70.125,27.612,68.487,26.499,66.607,25.219L66.607,25.219z M65.021,32.578
		c-0.215,0.154-0.438,0.308-0.66,0.46c-0.285,0.198-0.571,0.396-0.856,0.601l-0.591,0.425c-2.066,1.486-4.201,3.019-6.321,4.476
		c-0.4,0.273-0.8,0.555-1.202,0.835c-0.75,0.53-1.525,1.075-2.289,1.565c-0.292,0.189-0.583,0.412-0.863,0.633
		c-0.514,0.398-1.217,0.944-1.639,0.944c-0.053,0-0.295-0.009-0.406-0.069c-0.552-0.314-1.141-0.917-1.141-1.404v-5.707
		c0-0.708-0.373-1.297-1.074-1.359c-1.473-0.126-2.836-0.191-4.225-0.191c-12.075,0-18.622,4.687-22.02,8.613
		c1.263-5.715,4.593-9.969,9.904-12.691c5.71-2.928,12.159-3.243,14.66-3.243c0.727,0,1.153-0.105,1.175-0.103
		c0.033,0,0.067-0.129,0.096-0.129h0.464c0.75,0,1.021-0.353,1.021-1.101v-6.157c0-0.629,0.784-1.404,1.322-1.459
		c0.546-0.038,1.353,0.501,2.005,0.987c0.23,0.175,0.5,0.341,0.717,0.487c1.336,0.906,2.691,1.881,3.985,2.829
		c1.152,0.841,2.353,1.712,3.556,2.538c1.1,0.759,2.195,1.534,3.289,2.309l1.125,0.795c1.995,1.357,2.344,1.739,2.344,2.549
		C67.395,30.876,66.678,31.494,65.021,32.578L65.021,32.578z"/>
	<path fill="#2494F2" d="M52.927,55.549c3.428,0,5.671-2.355,5.671-5.824v-3.46c0-0.753-0.608-1.366-1.363-1.366
		c-0.751,0-1.363,0.613-1.363,1.366v3.46c0,1.977-1.01,3.096-2.943,3.096H17.549c-2.025,0-3.945-1.211-3.945-3.096V27.158
		c0-1.872,1.957-3.654,3.945-3.654h13.437c0.755,0,1.364-0.608,1.364-1.361s-0.609-1.364-1.364-1.364H17.549
		c-3.492,0-6.673,3.003-6.673,6.379v22.567c0,3.355,3.18,5.824,6.673,5.824H52.927z"/>
</g>
</svg>
