<?xml version="1.0" encoding="utf-8"?>
<!-- Generator: Adobe Illustrator 16.0.0, SVG Export Plug-In . SVG Version: 6.00 Build 0)  -->
<!DOCTYPE svg PUBLIC "-//W3C//DTD SVG 1.1//EN" "http://www.w3.org/Graphics/SVG/1.1/DTD/svg11.dtd">
<svg version="1.1" id="Layer_1" xmlns="http://www.w3.org/2000/svg" xmlns:xlink="http://www.w3.org/1999/xlink" x="0px" y="0px"
	 width="37.375px" height="38px" viewBox="0.5 1.333 37.375 38" enable-background="new 0.5 1.333 37.375 38" xml:space="preserve">
<g>
	<path opacity="0.6" fill="#2494F2" enable-background="new    " d="M5.029,19.667c-0.242,0-0.439,0.197-0.439,0.438
		c0,0.245,0.198,0.441,0.439,0.441h11.896c0.245,0,0.44-0.196,0.44-0.441c0-0.242-0.196-0.438-0.44-0.438H5.029L5.029,19.667z"/>
	<g>
		<path fill="#2494F2" d="M36.22,23.063c-1.02-0.972-2.428-1.207-3.671-1.413c-0.194-0.034-0.389-0.066-0.577-0.1
			c-0.141-0.038-0.319-0.077-0.501-0.121c-1.658-0.385-2.829-0.762-2.833-2.117c-0.004-0.894,0.292-1.721,0.603-2.599
			c0.356-1.004,0.726-2.045,0.666-3.255c-0.112-2.159-1.027-4.036-2.45-5.025c-0.568-0.454-1.315-0.723-2.026-0.723
			c-1.057,0-1.847,0.575-2.168,1.577c-0.226,0.675-0.188,1.332-0.146,2.026c0.008,0.172,0.02,0.348,0.024,0.53
			c0.04,0.957-0.074,1.749-0.354,2.496c-0.53,1.493-1.593,2.883-2.461,3.933l-0.474,0.595c-0.664,0.838-1.35,1.704-2.129,2.398
			c-0.382,0.303-0.79,0.414-1.316,0.526c-0.149,0.01-9.175,0.099-9.175,0.099v13.266c0,0,7.08-0.01,7.476-0.033
			c0.35-0.02,0.688-0.039,0.996-0.039h0.143c0.292,0.061,0.585,0.092,0.893,0.127c0.274,0.027,0.556,0.059,0.852,0.115
			c0.333,0.064,0.677,0.389,1.011,0.705c0.194,0.184,0.383,0.359,0.57,0.49c0.192,0.135,0.376,0.27,0.566,0.406
			c0.577,0.422,1.177,0.857,1.857,1.164c0.839,0.359,1.764,0.479,2.662,0.594c0.436,0.059,0.869,0.109,1.283,0.193
			c0.271,0.029,0.505,0.057,0.74,0.084c0.7,0.078,1.428,0.164,2.156,0.164c0.49,0,0.924-0.039,1.324-0.119
			c1.435-0.408,2.348-1.57,2.349-2.906c0.728-0.291,1.38-0.9,1.793-1.68c0.368-0.697,0.492-1.443,0.357-2.104
			c1.384-0.905,2.101-2.605,1.716-4.061c0.61-0.421,1.032-1.126,1.178-1.983C37.354,25.087,36.989,23.826,36.22,23.063L36.22,23.063
			z M35.285,25.719c-0.047,0.41-0.234,0.913-0.855,1.027c-0.335,0.097-0.559,0.291-0.667,0.563c-0.13,0.331-0.082,0.745,0.134,1.1
			c0.224,0.268,0.26,0.826,0.126,1.312c-0.183,0.577-0.604,0.986-1.256,1.207c-0.277,0.034-0.527,0.227-0.663,0.521
			c-0.154,0.335-0.121,0.699,0.093,0.949c0.183,0.266,0.148,0.861-0.104,1.354c-0.202,0.387-0.491,0.619-0.771,0.619
			c-0.038,0-0.078-0.006-0.118-0.014l-0.045-0.01h-0.046c-0.343,0-0.789,0.15-1.009,0.492c-0.146,0.225-0.167,0.496-0.056,0.75
			c0.137,0.367,0.121,0.783-0.049,1.063c-0.121,0.207-0.317,0.324-0.583,0.361c-0.469,0.123-0.936,0.123-1.389,0.123
			c-1.345-0.119-2.773-0.252-4.153-0.5l-0.659-0.148c-0.341-0.076-0.679-0.15-0.98-0.225c-0.492-0.244-1.045-0.66-1.578-1.066
			c-0.179-0.133-0.351-0.266-0.522-0.389c-0.124-0.1-0.259-0.227-0.397-0.355c-0.351-0.33-0.745-0.703-1.237-0.838
			c-0.46-0.285-0.952-0.285-1.35-0.285c-1.286-0.119-1.894-0.584-2.206-1.709c-0.308-1.135-0.32-2.433-0.301-3.555l0.003-0.252
			c0.01-1.059,0.027-2.383,0.57-3.345c0.27-0.457,0.809-0.556,1.431-0.675c0.863-0.141,1.541-0.425,2.175-0.911
			c0.089-0.033,0.183-0.1,0.252-0.225c0.257-0.178,0.469-0.436,0.662-0.669c1.02-1.107,1.959-2.264,2.698-3.327
			c0.172-0.255,0.345-0.5,0.514-0.744c0.785-1.122,1.6-2.282,1.944-3.709c0.243-1.052,0.222-1.961,0.167-3.041l-0.008-0.161
			c-0.043-0.656-0.053-1.363,0.318-1.415c0.025-0.004,0.057-0.009,0.086-0.009c0.601,0,1.36,0.758,1.812,1.46
			c0.47,0.891,0.715,1.825,0.688,2.67c-0.024,0.878-0.31,1.709-0.612,2.589c-0.357,1.04-0.728,2.117-0.643,3.289
			c0.122,1.596,1.39,2.975,3.152,3.432c0.514,0.134,1.06,0.223,1.587,0.309c0.983,0.16,2.001,0.326,2.831,0.792
			C34.811,24.396,35.388,24.968,35.285,25.719L35.285,25.719z"/>
	</g>
	<path opacity="0.6" fill="#2494F2" enable-background="new    " d="M14.243,15.879h6.143V9.737h-6.143V15.879z M15.122,10.614
		h4.385v4.387h-4.385V10.614z"/>
	<path opacity="0.6" fill="#2494F2" enable-background="new    " d="M5.029,9.737c-0.242,0-0.439,0.196-0.439,0.438
		c0,0.243,0.198,0.44,0.439,0.44h7.02c0.242,0,0.439-0.197,0.439-0.44c0-0.242-0.197-0.438-0.439-0.438H5.029L5.029,9.737z"/>
	<path opacity="0.6" fill="#2494F2" enable-background="new    " d="M5.029,12.369c-0.242,0-0.439,0.196-0.439,0.439
		c0,0.242,0.198,0.437,0.439,0.437h7.02c0.242,0,0.439-0.195,0.439-0.437c0-0.244-0.197-0.439-0.439-0.439H5.029L5.029,12.369z"/>
	<path opacity="0.6" fill="#2494F2" enable-background="new    " d="M5.029,15.001c-0.242,0-0.439,0.197-0.439,0.438
		c0,0.243,0.198,0.439,0.439,0.439h7.02c0.242,0,0.439-0.196,0.439-0.439c0-0.242-0.197-0.438-0.439-0.438H5.029L5.029,15.001z"/>
	<path opacity="0.6" fill="#2494F2" enable-background="new    " d="M5.029,17.311c-0.242,0-0.439,0.197-0.439,0.439
		c0,0.242,0.198,0.439,0.439,0.439h14.478c0.244,0,0.439-0.197,0.439-0.439c0-0.243-0.197-0.439-0.439-0.439H5.029L5.029,17.311z"/>
	<path opacity="0.6" fill="#2494F2" enable-background="new    " d="M5.029,23.793c-0.242,0-0.439,0.196-0.439,0.438
		s0.198,0.438,0.439,0.438h1.569c0.244,0,0.439-0.196,0.439-0.438s-0.195-0.438-0.439-0.438H5.029L5.029,23.793z"/>
	<path opacity="0.6" fill="#2494F2" enable-background="new    " d="M22.139,2.836v4.388H2.841V2.836H22.139z M4.59,27.405
		L4.59,27.405c-0.964,0-1.749-0.786-1.749-1.75V8.101h19.297v7.605h0.878v0.292v-0.876V1.958H1.963v5.682
		c0,0.007-0.004,0.015-0.004,0.022l0,0c0,0.008,0.004,0.014,0.004,0.022v17.97c0,1.449,1.179,2.628,2.627,2.628L4.59,27.405"/>
	<rect x="4.59" y="27.405" opacity="0.6" fill="#2494F2" enable-background="new    " width="2.638" height="0.879"/>
</g>
</svg>
