<?xml version="1.0" encoding="utf-8"?>
<!-- Generator: Adobe Illustrator 16.0.0, SVG Export Plug-In . SVG Version: 6.00 Build 0)  -->
<!DOCTYPE svg PUBLIC "-//W3C//DTD SVG 1.1//EN" "http://www.w3.org/Graphics/SVG/1.1/DTD/svg11.dtd">
<svg version="1.1" id="Layer_1" xmlns="http://www.w3.org/2000/svg" xmlns:xlink="http://www.w3.org/1999/xlink" x="0px" y="0px"
	 width="55.83px" height="43.56px" viewBox="0 0 41.5 36.833" enable-background="new 0 0 41.5 36.833" xml:space="preserve">
<g>
	<path fill="#2494F2" d="M34.9,33.637V8.136l-14.15-5.99L6.6,8.136v25.501H4.505v1.051h3.139V8.827l13.106-5.54l13.105,5.54v25.86
		h3.14v-1.051H34.9z M34.9,33.637"/>
	<path opacity="0.6" fill="#2494F2" d="M9.22,13.196v21.491h1.051v-20.44h20.959v20.44h1.052V13.196H9.22z M9.22,13.196"/>
	<path fill="#2494F2" d="M11.839,27.347v7.341h8.386v-7.341H11.839z M15.503,28.397h1.052v1.05h-1.052V28.397z M19.181,33.637H12.89
		v-5.239h1.571v2.094h3.144v-2.094h1.577V33.637z M19.181,33.637"/>
	<path opacity="0.6" fill="#2494F2" d="M21.275,27.347v7.341h8.385v-7.341H21.275z M24.939,28.397h1.05v1.05h-1.05V28.397z
		 M28.61,33.637h-6.292v-5.239h1.57v2.094h3.145v-2.094h1.576V33.637z M28.61,33.637"/>
	<path fill="#2494F2" d="M17.083,25.907h8.385v-7.34h-8.385V25.907z M20.754,19.617h1.05v1.051h-1.05V19.617z M18.133,19.617h1.569
		v2.095h3.146v-2.095h1.569v5.239h-6.284V19.617z M18.133,19.617"/>
</g>
</svg>
