<?xml version="1.0" encoding="utf-8"?>
<!-- Generator: Adobe Illustrator 16.0.0, SVG Export Plug-In . SVG Version: 6.00 Build 0)  -->
<!DOCTYPE svg PUBLIC "-//W3C//DTD SVG 1.1//EN" "http://www.w3.org/Graphics/SVG/1.1/DTD/svg11.dtd">
<svg version="1.1" id="Layer_1" xmlns="http://www.w3.org/2000/svg" xmlns:xlink="http://www.w3.org/1999/xlink" x="0px" y="0px"
	 width="81px" height="71.333px" viewBox="0 0 81 71.333" enable-background="new 0 0 81 71.333" xml:space="preserve">
<g>
	<path fill="#2494F2" d="M51.625,66.031c-2.712,0-5.296-1.026-7.264-2.887c-1.95-1.846-3.123-4.337-3.309-7.021l-0.063-0.608
		c-0.004-0.044-0.006-0.086-0.006-0.128c0-0.956,0.144-1.936,0.431-2.919L23.158,34.207c-0.981,0.287-1.964,0.434-2.923,0.434
		c-0.039,0-0.079-0.002-0.121-0.005L19.5,34.573c-2.682-0.187-5.176-1.361-7.018-3.312c-1.862-1.969-2.891-4.552-2.891-7.266
		c0-1.555,0.354-3.091,1.06-4.563c0.176-0.36,0.509-0.617,0.906-0.682c0.389-0.068,0.791,0.06,1.073,0.34l6.253,6.254
		c0.18,0.179,0.405,0.317,0.701,0.431c0.233,0.088,0.454,0.135,0.65,0.135c0.513,0,0.991-0.2,1.353-0.56
		c0.518-0.521,0.686-1.313,0.422-2.016c-0.103-0.283-0.239-0.508-0.422-0.689l-6.254-6.256c-0.282-0.28-0.411-0.681-0.341-1.074
		c0.063-0.393,0.316-0.727,0.68-0.897c1.469-0.708,3.008-1.064,4.564-1.064c2.717,0,5.298,1.029,7.268,2.891
		c1.948,1.844,3.122,4.336,3.312,7.017l0.061,0.618c0.004,0.039,0.009,0.078,0.009,0.118c0,0.965-0.149,1.944-0.44,2.925
		l18.256,18.257c0.98-0.289,1.96-0.434,2.921-0.434c0.04,0,0.083,0.002,0.127,0.006l0.609,0.06c2.684,0.189,5.175,1.361,7.02,3.312
		c1.862,1.971,2.89,4.552,2.894,7.264c0,1.562-0.357,3.102-1.061,4.569c-0.173,0.361-0.513,0.612-0.902,0.68
		c-0.394,0.068-0.794-0.061-1.074-0.342l-6.256-6.256c-0.007-0.005-0.012-0.009-0.015-0.009c-0.162-0.172-0.381-0.306-0.677-0.415
		c-0.241-0.093-0.457-0.134-0.662-0.134c-0.503,0-0.997,0.201-1.344,0.553c-0.525,0.524-0.697,1.313-0.438,2.017
		c0.111,0.28,0.257,0.517,0.432,0.692l6.258,6.256c0.28,0.279,0.41,0.679,0.341,1.07c-0.067,0.391-0.317,0.727-0.675,0.9
		C54.743,65.672,53.204,66.031,51.625,66.031z M43.438,55.325l0.06,0.567c0.002,0.017,0.002,0.03,0.005,0.044
		c0.284,4.283,3.852,7.639,8.122,7.639c0.61,0,1.215-0.071,1.805-0.214l-4.89-4.89c-0.426-0.421-0.758-0.944-0.993-1.554
		c-0.001-0.002-0.001-0.009-0.001-0.014c-0.597-1.604-0.201-3.412,0.997-4.608c0.797-0.807,1.924-1.274,3.081-1.274
		c0.503,0,1.015,0.095,1.526,0.289c0.632,0.238,1.148,0.565,1.569,0.996l4.881,4.882c0.144-0.598,0.215-1.197,0.215-1.801
		c-0.002-4.271-3.359-7.842-7.643-8.131c-0.014,0-0.023-0.005-0.037-0.005l-0.57-0.055c-0.901,0.008-1.833,0.189-2.772,0.536
		c-0.45,0.167-0.956,0.056-1.29-0.284L28.176,28.12c-0.339-0.338-0.453-0.847-0.287-1.296c0.35-0.939,0.532-1.87,0.537-2.77
		l-0.056-0.57c-0.001-0.014-0.001-0.024-0.001-0.041c-0.294-4.282-3.863-7.635-8.134-7.635c-0.603,0-1.201,0.07-1.8,0.21l4.89,4.889
		c0.435,0.435,0.768,0.968,0.989,1.577c0.591,1.594,0.203,3.4-0.985,4.596c-0.829,0.826-1.928,1.282-3.094,1.282
		c-0.491,0-1.004-0.098-1.519-0.29c-0.636-0.246-1.147-0.568-1.57-0.996l-4.887-4.881c-0.145,0.597-0.211,1.197-0.211,1.8
		c0,4.268,3.353,7.841,7.636,8.13c0.016,0,0.025,0.003,0.038,0.003l0.574,0.057c0.896-0.008,1.827-0.186,2.772-0.534
		c0.448-0.164,0.952-0.053,1.291,0.287l19.322,19.327c0.336,0.336,0.447,0.839,0.284,1.282
		C43.618,53.512,43.444,54.419,43.438,55.325z"/>
	<path opacity="0.6" fill="#2494F2" enable-background="new    " d="M48.499,19.806H37.044v11.456h11.455V19.806z M46.861,29.623
		h-8.177v-8.18h8.177V29.623z"/>
	<path opacity="0.6" fill="#2494F2" enable-background="new    " d="M65.681,19.806h-13.09c-0.45,0-0.818,0.364-0.818,0.816
		c0,0.453,0.368,0.821,0.818,0.821h13.09c0.452,0,0.819-0.368,0.819-0.821S66.132,19.806,65.681,19.806L65.681,19.806z"/>
	<path opacity="0.6" fill="#2494F2" enable-background="new    " d="M65.681,24.713h-13.09c-0.45,0-0.818,0.366-0.818,0.819
		c0,0.45,0.368,0.816,0.818,0.816h13.09c0.452,0,0.819-0.366,0.819-0.816C66.5,25.08,66.132,24.713,65.681,24.713L65.681,24.713z"/>
	<path opacity="0.6" fill="#2494F2" enable-background="new    " d="M65.681,29.623h-13.09c-0.45,0-0.818,0.367-0.818,0.82
		c0,0.451,0.368,0.818,0.818,0.818h13.09c0.452,0,0.819-0.367,0.819-0.818C66.5,29.99,66.132,29.623,65.681,29.623L65.681,29.623z"
		/>
	<path opacity="0.6" fill="#2494F2" enable-background="new    " d="M65.681,35.096H38.685c-0.454,0-0.819,0.366-0.819,0.819
		c0,0.452,0.365,0.817,0.819,0.817h26.996c0.452,0,0.819-0.365,0.819-0.817C66.5,35.461,66.132,35.096,65.681,35.096L65.681,35.096z
		"/>
	<path opacity="0.6" fill="#2494F2" enable-background="new    " d="M65.681,40.459H43.499c-0.455,0-0.82,0.367-0.82,0.82
		c0,0.454,0.365,0.818,0.82,0.818h22.18c0.453,0,0.821-0.364,0.821-0.818C66.5,40.827,66.132,40.459,65.681,40.459L65.681,40.459z"
		/>
	<path opacity="0.6" fill="#2494F2" enable-background="new    " d="M65.681,46.015h-2.926c-0.455,0-0.818,0.366-0.818,0.819
		c0,0.451,0.363,0.816,0.818,0.816h2.926c0.452,0,0.819-0.367,0.819-0.816C66.5,46.381,66.132,46.015,65.681,46.015L65.681,46.015z"
		/>
	<path opacity="0.6" fill="#2494F2" enable-background="new    " d="M69.762,6.938v8.184H33.777V6.938H69.762z M66.5,52.752v1.64
		c2.7,0,4.899-2.202,4.899-4.901V15.979c0.002-0.014,0.009-0.026,0.009-0.04l0,0c0-0.015-0.007-0.026-0.009-0.04V5.301H32.138
		v24.545v1.635v-0.545h1.64V16.755h35.984v32.735C69.762,51.29,68.299,52.752,66.5,52.752L66.5,52.752"/>
	<rect x="61.58" y="52.752" opacity="0.6" fill="#2494F2" enable-background="new    " width="5.041" height="1.64"/>
</g>
</svg>
