<?xml version="1.0" encoding="utf-8"?>
<!-- Generator: Adobe Illustrator 16.0.0, SVG Export Plug-In . SVG Version: 6.00 Build 0)  -->
<!DOCTYPE svg PUBLIC "-//W3C//DTD SVG 1.1//EN" "http://www.w3.org/Graphics/SVG/1.1/DTD/svg11.dtd">
<svg version="1.1" id="Layer_1" xmlns="http://www.w3.org/2000/svg" xmlns:xlink="http://www.w3.org/1999/xlink" x="0px" y="0px"
	 width="48.583px" height="36.833px" viewBox="0 0 48.583 36.833" enable-background="new 0 0 48.583 36.833" xml:space="preserve">
<g>
	<g>
		<path opacity="0.6" fill="#83BCE6" d="M39.086,25.76c-1.14,0-2.222,0.444-3.036,1.252c-0.816,0.815-1.271,1.878-1.271,3.017
			c0,1.138,0.445,2.2,1.271,3.016c0.825,0.808,1.896,1.253,3.036,1.253c2.333,0,4.229-1.916,4.229-4.269S41.419,25.76,39.086,25.76z
			 M39.086,32.399c-1.31,0-2.41-1.082-2.41-2.371c0-1.29,1.1-2.372,2.41-2.372c1.289,0,2.333,1.062,2.333,2.372
			C41.419,31.337,40.375,32.399,39.086,32.399z"/>
	</g>
	<g>
		<path opacity="0.6" fill="#83BCE6" d="M43.04,14.11l-2.854-2.571c-0.171-0.16-0.399-0.246-0.636-0.246h-4.867
			c-0.521,0-0.948,0.427-0.948,0.949v7.777c0,0.522,0.426,0.949,0.948,0.949h7.722c0.521,0,0.949-0.427,0.949-0.949v-5.207
			C43.354,14.547,43.241,14.291,43.04,14.11z M41.456,19.072h-5.824v-5.892h3.547l2.276,2.049V19.072z"/>
	</g>
	<g>
		<path opacity="0.6" fill="#83BCE6" d="M15.92,25.76c-1.138,0-2.22,0.444-3.036,1.252c-0.815,0.815-1.271,1.878-1.271,3.017
			c0,1.138,0.446,2.2,1.271,3.016c0.826,0.808,1.898,1.253,3.036,1.253c2.334,0,4.231-1.916,4.231-4.269S18.254,25.76,15.92,25.76z
			 M15.92,32.399c-1.309,0-2.408-1.082-2.408-2.371c0-1.29,1.1-2.372,2.408-2.372c1.29,0,2.334,1.062,2.334,2.372
			C18.254,31.337,17.21,32.399,15.92,32.399z"/>
	</g>
	<path fill="#2494F2" d="M9.593,26.926H7.686v-2.524c0-0.521-0.426-0.946-0.948-0.946c-0.522,0-0.95,0.426-0.95,0.946v3.474
		c0,0.521,0.427,0.948,0.95,0.948h2.855c0.521,0,0.948-0.427,0.948-0.948S10.114,26.926,9.593,26.926L9.593,26.926z"/>
	<path fill="#2494F2" d="M14.403,21.756c0-0.521-0.428-0.948-0.949-0.948H1.947c-0.522,0-0.949,0.427-0.949,0.948
		c0,0.522,0.427,0.949,0.949,0.949h11.507C13.975,22.705,14.403,22.287,14.403,21.756L14.403,21.756z"/>
	<path opacity="0.6" fill="#83BCE6" d="M3.872,18.331l11.506,0.067c0.522,0,0.95-0.418,0.959-0.939
		c0.009-0.531-0.418-0.958-0.94-0.958L3.892,16.435h-0.01c-0.521,0-0.948,0.418-0.948,0.938C2.924,17.904,3.351,18.331,3.872,18.331
		L3.872,18.331z"/>
	<path fill="#2494F2" d="M5.808,14.024h11.507c0.521,0,0.949-0.426,0.949-0.948c0-0.521-0.427-0.948-0.949-0.948H5.808
		c-0.521,0-0.949,0.427-0.949,0.948C4.858,13.599,5.286,14.024,5.808,14.024L5.808,14.024z"/>
	<path fill="#2494F2" d="M47.234,12.744l-6.792-5.625c-0.171-0.143-0.379-0.218-0.607-0.218h-7.986V3.485
		c0-0.521-0.427-0.948-0.949-0.948H6.738c-0.522,0-0.95,0.427-0.95,0.948v6.944c0,0.521,0.427,0.949,0.95,0.949
		c0.522,0,0.948-0.428,0.948-0.949V4.434h22.273v22.492h-7.778c-0.522,0-0.949,0.428-0.949,0.949s0.427,0.948,0.949,0.948h11.583
		c0.522,0,0.949-0.427,0.949-0.948s-0.426-0.949-0.949-0.949h-1.906V8.798h7.645l6.186,5.122l-0.066,12.987h-0.987
		c-0.521,0-0.948,0.427-0.948,0.949c0,0.521,0.428,0.947,0.948,0.947h1.927c0.521,0,0.949-0.416,0.949-0.938l0.076-14.382
		C47.575,13.2,47.452,12.924,47.234,12.744L47.234,12.744z"/>
</g>
</svg>
