<?xml version="1.0" encoding="utf-8"?>
<!-- Generator: Adobe Illustrator 16.0.0, SVG Export Plug-In . SVG Version: 6.00 Build 0)  -->
<!DOCTYPE svg PUBLIC "-//W3C//DTD SVG 1.1//EN" "http://www.w3.org/Graphics/SVG/1.1/DTD/svg11.dtd">
<svg version="1.1" id="Layer_1" xmlns="http://www.w3.org/2000/svg" xmlns:xlink="http://www.w3.org/1999/xlink" x="0px" y="0px"
	 width="81px" height="70.333px" viewBox="0 0 81 85.333" enable-background="new 0 0 81 85.333" xml:space="preserve">
<g>
	<path fill="#2494F2" d="M58.409,72.18c-2.782,0-5.432-1.053-7.448-2.961c-2-1.891-3.204-4.445-3.393-7.197l-0.067-0.625
		c-0.003-0.045-0.006-0.088-0.006-0.13c0-0.982,0.147-1.986,0.442-2.995L29.22,39.548c-1.006,0.296-2.014,0.445-2.999,0.445
		c-0.039,0-0.081-0.002-0.123-0.006l-0.63-0.064c-2.75-0.19-5.307-1.394-7.196-3.395c-1.908-2.019-2.964-4.666-2.964-7.45
		c0-1.596,0.367-3.169,1.089-4.682c0.179-0.366,0.52-0.629,0.925-0.697c0.4-0.067,0.813,0.063,1.103,0.348l6.413,6.414
		c0.185,0.185,0.413,0.325,0.718,0.442c0.239,0.089,0.465,0.137,0.666,0.137c0.527,0,1.016-0.206,1.388-0.575
		c0.531-0.533,0.702-1.345,0.433-2.066c-0.106-0.29-0.246-0.52-0.433-0.706l-6.415-6.417c-0.287-0.287-0.418-0.697-0.35-1.101
		c0.069-0.402,0.328-0.747,0.699-0.921c1.506-0.724,3.083-1.092,4.678-1.092c2.789,0,5.433,1.054,7.453,2.964
		c1.999,1.892,3.202,4.447,3.396,7.196l0.062,0.633c0.004,0.04,0.007,0.083,0.007,0.122c0,0.986-0.15,1.992-0.449,2.999
		l18.72,18.721c1.006-0.297,2.008-0.447,2.996-0.447c0.041,0,0.083,0.002,0.126,0.009l0.628,0.06
		c2.75,0.193,5.306,1.397,7.196,3.397c1.91,2.021,2.964,4.666,2.967,7.448c0,1.602-0.367,3.177-1.089,4.686
		c-0.176,0.367-0.523,0.626-0.923,0.694c-0.404,0.07-0.814-0.061-1.103-0.35l-6.415-6.414c-0.006-0.005-0.01-0.009-0.014-0.012
		c-0.168-0.175-0.392-0.312-0.693-0.423c-0.25-0.094-0.47-0.14-0.68-0.14c-0.519,0-1.024,0.208-1.378,0.57
		c-0.541,0.538-0.714,1.346-0.45,2.066c0.112,0.291,0.263,0.528,0.441,0.71l6.417,6.414c0.287,0.287,0.421,0.697,0.351,1.099
		c-0.069,0.401-0.326,0.746-0.693,0.922C61.606,71.814,60.027,72.18,58.409,72.18z M50.014,61.203l0.061,0.583
		c0.001,0.017,0.001,0.029,0.005,0.045c0.29,4.391,3.95,7.831,8.33,7.831c0.626,0,1.244-0.074,1.85-0.219l-5.014-5.013
		c-0.434-0.433-0.777-0.97-1.016-1.594c-0.003-0.005-0.003-0.01-0.004-0.014c-0.611-1.644-0.207-3.5,1.022-4.724
		c0.819-0.831,1.975-1.308,3.162-1.308c0.514,0,1.04,0.098,1.564,0.298c0.65,0.242,1.179,0.575,1.609,1.017l5.003,5.009
		c0.147-0.613,0.221-1.227,0.221-1.849c-0.002-4.378-3.445-8.04-7.838-8.336c-0.011,0-0.023-0.004-0.036-0.004l-0.585-0.059
		c-0.925,0.009-1.878,0.193-2.84,0.551c-0.465,0.169-0.983,0.056-1.327-0.293L34.363,33.307c-0.348-0.349-0.464-0.867-0.292-1.326
		c0.356-0.966,0.541-1.92,0.548-2.84l-0.055-0.586c-0.005-0.015-0.005-0.026-0.005-0.041c-0.299-4.39-3.959-7.83-8.338-7.83
		c-0.616,0-1.232,0.071-1.845,0.216l5.014,5.012c0.445,0.448,0.786,0.991,1.014,1.618c0.605,1.635,0.208,3.485-1.011,4.713
		c-0.849,0.846-1.976,1.313-3.172,1.313c-0.504,0-1.029-0.099-1.555-0.298c-0.653-0.25-1.178-0.582-1.611-1.02l-5.011-5.005
		c-0.146,0.611-0.216,1.228-0.216,1.846c0,4.377,3.437,8.039,7.83,8.337c0.016,0,0.027,0.001,0.039,0.003l0.588,0.059
		c0.921-0.01,1.875-0.193,2.843-0.548c0.461-0.17,0.976-0.058,1.324,0.291L50.266,57.04c0.345,0.343,0.458,0.859,0.292,1.315
		C50.198,59.344,50.021,60.271,50.014,61.203z"/>
	<g opacity="0.6">
		<g>
			<path fill="#2494F2" d="M17.749,74.521c-1.784,0-3.459-0.692-4.718-1.95c-2.6-2.602-2.6-6.83,0-9.431L30.945,45.23
				c0.472-0.475,1.239-0.475,1.715,0l7.718,7.708c0.228,0.228,0.355,0.537,0.355,0.858c0,0.321-0.128,0.63-0.355,0.858
				L22.465,72.572C21.207,73.829,19.531,74.521,17.749,74.521z M31.802,47.801L14.745,64.856c-1.653,1.654-1.653,4.345,0,5.999
				c0.802,0.8,1.868,1.24,3.003,1.24c1.134,0,2.2-0.44,3-1.24l17.055-17.059L31.802,47.801z"/>
		</g>
		<path fill="#2494F2" d="M49.162,41.514L49.162,41.514c-0.322,0-0.631-0.13-0.858-0.358l-3.849-3.855
			c-0.473-0.474-0.473-1.241,0-1.714l9.358-9.369l3.954-7.627c0.115-0.223,0.296-0.405,0.518-0.52l7.893-4.088
			c0.471-0.241,1.043-0.154,1.417,0.22l3.808,3.809c0.373,0.374,0.463,0.946,0.22,1.414l-4.084,7.896
			c-0.116,0.224-0.298,0.405-0.52,0.521l-7.636,3.947l-9.361,9.365C49.792,41.384,49.484,41.514,49.162,41.514z M47.028,36.444
			l2.135,2.139l8.637-8.641c0.088-0.088,0.189-0.164,0.301-0.22l7.458-3.858l3.5-6.764l-2.553-2.553l-6.763,3.5l-3.863,7.454
			c-0.057,0.11-0.13,0.21-0.218,0.299L47.028,36.444z"/>
	</g>
</g>
</svg>
