<?xml version="1.0" encoding="utf-8"?>
<!-- Generator: Adobe Illustrator 16.0.0, SVG Export Plug-In . SVG Version: 6.00 Build 0)  -->
<!DOCTYPE svg PUBLIC "-//W3C//DTD SVG 1.1//EN" "http://www.w3.org/Graphics/SVG/1.1/DTD/svg11.dtd">
<svg version="1.1" id="Layer_1" xmlns="http://www.w3.org/2000/svg" xmlns:xlink="http://www.w3.org/1999/xlink" x="0px" y="0px"
	 width="115.5px" height="39.5px" viewBox="0 0 115.5 39.5" enable-background="new 0 0 115.5 39.5" xml:space="preserve">
<g id="_x23_3a73b8ff_2_">
	<g>
		<path fill="#FAFAFA" d="M16.123,4.719c3.29-0.251,6.649,0.518,9.505,2.169c2.286,1.317,4.26,3.176,5.689,5.394
			c1.776,2.711,2.715,5.958,2.688,9.199c-0.021,3.387-1.1,6.763-3.069,9.521c-1.998,2.83-4.903,5.008-8.185,6.123
			c-2.912,1.009-6.104,1.167-9.109,0.493c-3.15-0.702-6.078-2.36-8.318-4.685c-2.373-2.458-3.98-5.658-4.471-9.043
			c-0.484-3.015-0.083-6.16,1.095-8.974c1.094-2.617,2.874-4.938,5.104-6.688C9.637,6.189,12.839,4.947,16.123,4.719 M16.118,5.52
			c-1.956,0.14-3.877,0.663-5.646,1.509c-2.844,1.371-5.275,3.597-6.854,6.335c-2.348,3.948-2.802,8.945-1.262,13.267
			c0.987,2.811,2.791,5.318,5.124,7.169c2.71,2.15,6.138,3.388,9.6,3.417c2.527,0.056,5.066-0.519,7.324-1.657
			c2.874-1.423,5.29-3.75,6.834-6.56c1.544-2.79,2.22-6.058,1.878-9.229c-0.457-5.147-3.673-9.916-8.21-12.361
			C22.245,5.944,19.148,5.272,16.118,5.52z"/>
		<path fill="#FAFAFA" d="M13.313,7.028c2.771-0.775,5.771-0.741,8.512,0.144c0.12,0.037,0.211,0.125,0.305,0.204
			c-0.453-0.033-0.867-0.237-1.313-0.314c-1.12-0.225-2.282-0.334-3.417-0.166c-0.712,0.127-1.46,0.403-1.91,0.997
			c-0.34,0.442-0.375,1.136,0.019,1.554c0.437,0.463,1.214,0.438,1.698,0.064c0.572-0.421,1.128-0.922,1.842-1.079
			c1.452-0.359,2.976-0.07,4.382,0.349c1.689,0.46,3.287,1.294,4.583,2.476c2.159,1.908,3.458,4.647,3.95,7.456
			c0.43,2.397,0.301,4.9-0.442,7.223c-0.028,0.108-0.096,0.172-0.21,0.189c0.433-1.581,0.752-3.259,0.429-4.891
			c-0.168-0.789-0.557-1.677-1.386-1.946c-0.636-0.225-1.408,0.212-1.458,0.902c-0.122,0.739,0.482,1.271,0.856,1.824
			c0.809,1.16,0.709,2.663,0.511,3.992c-0.37,1.8-0.972,3.591-2.062,5.091c-1.684,2.416-4.363,4.01-7.197,4.691
			c-2.463,0.588-5.07,0.584-7.528-0.021c-0.325-0.097-0.692-0.14-0.944-0.388c0.47-0.001,0.904,0.202,1.363,0.275
			c1.252,0.228,2.562,0.369,3.813,0.055c0.567-0.157,1.143-0.426,1.499-0.912c0.33-0.454,0.323-1.147-0.083-1.553
			c-0.352-0.371-0.938-0.448-1.387-0.214c-0.534,0.29-0.941,0.766-1.487,1.038c-1.1,0.535-2.375,0.456-3.548,0.258
			c-1.946-0.382-3.867-1.087-5.436-2.328c-2.084-1.6-3.523-3.935-4.232-6.448c-0.746-2.631-0.752-5.458-0.069-8.105
			c0.118-0.273,0.073-0.707,0.386-0.835c-0.4,1.511-0.715,3.095-0.473,4.662c0.124,0.695,0.367,1.432,0.942,1.884
			c0.399,0.33,1.023,0.45,1.466,0.134c0.469-0.275,0.625-0.929,0.405-1.411c-0.229-0.544-0.696-0.941-0.963-1.465
			c-0.577-1.055-0.515-2.314-0.36-3.47c0.322-1.851,0.951-3.679,2.041-5.223C8.029,9.373,10.58,7.765,13.313,7.028 M13.688,12.646
			c-0.904,0.488-1.524,1.357-1.98,2.254c-0.481,0.922-0.682,1.952-0.775,2.978c-0.445-0.06-0.803-0.405-0.906-0.838
			c-0.208-0.634,0.011-1.284,0.125-1.91c0.05-0.182-0.089-0.329-0.162-0.479c-0.378-0.023-0.767,0.164-0.938,0.511
			c-0.517,0.964-0.471,2.267,0.242,3.122c0.409,0.518,1.055,0.774,1.697,0.843c0.217,0.667,0.641,1.317,1.32,1.58
			c0.832,0.336,1.746-0.016,2.47-0.454c-0.026,0.269-0.04,0.544-0.134,0.8c-0.254,0.205-0.564,0.324-0.848,0.482
			c-1.395,0.736-2.818,1.477-3.991,2.549c-0.854,0.802-1.526,1.869-1.655,3.052c-0.063,0.929,0.308,1.949,1.121,2.46
			c0.852,0.563,1.973,0.532,2.899,0.183c1.171-0.446,2.042-1.438,2.618-2.52c0.852-1.532,0.998-3.319,1.123-5.033
			c0.033-0.201-0.009-0.484,0.227-0.571c1.394-0.784,2.747-1.636,4.041-2.574c0.152,0.189,0.305,0.378,0.449,0.572
			c-0.667,0.397-1.332,0.826-1.834,1.427c-1.881,2.057-1.912,5.588,0.059,7.596c1.008,1.062,2.558,1.517,3.991,1.305
			c1.318-0.188,2.519-1.017,3.184-2.166c0.887-1.464,0.741-3.511-0.412-4.788c-1.077-1.191-3.177-1.168-4.231,0.041
			c-0.829,0.873-0.856,2.417,0.01,3.27c0.351,0.351,0.962,0.562,1.401,0.261c0.284-0.205,0.258-0.642,0.028-0.879
			c-0.297-0.358-0.647-0.772-0.559-1.271c0.089-0.651,0.815-1.049,1.428-0.911c0.523,0.082,0.941,0.491,1.137,0.971
			c0.458,1.091,0.199,2.444-0.625,3.293c-0.873,0.911-2.391,1.053-3.443,0.379c-0.936-0.575-1.469-1.643-1.633-2.702
			c-0.172-1.276,0.073-2.654,0.865-3.695c0.511-0.659,1.221-1.201,2.041-1.396c0.686,0.053,1.398,0.177,2.071-0.043
			c0.317-0.108,0.626-0.463,0.464-0.81c-0.174-0.355-0.603-0.463-0.959-0.538c-0.533-0.105-1.063,0.037-1.585,0.137
			c-0.364-0.125-0.556-0.507-0.69-0.844c1.012-0.756,2.011-1.578,2.697-2.653c0.4-0.646,0.66-1.439,0.474-2.198
			c-0.148-0.503-0.561-0.93-1.086-1.026c-0.878-0.221-1.774,0.222-2.371,0.85c-0.957,1.04-1.443,2.479-1.397,3.884
			c-0.014,0.29,0.098,0.595,0.017,0.874c-0.718,0.579-1.521,1.044-2.293,1.544c-0.445,0.258-0.868,0.556-1.339,0.764
			c0.007-0.448,0.03-0.901,0.158-1.333c0.34-0.464,0.768-0.868,1.037-1.384c0.198-0.356,0.384-0.807,0.179-1.2
			c-0.189-0.291-0.606-0.263-0.88-0.118c-0.582,0.292-0.899,0.91-1.136,1.487c-0.161,0.37-0.18,0.829-0.523,1.091
			c-0.48,0.419-1.06,0.84-1.726,0.816c-0.381,0.001-0.635-0.357-0.715-0.694c1.054-0.409,1.933-1.173,2.646-2.036
			c0.66-0.849,1.185-1.85,1.274-2.937c0.05-0.548-0.147-1.167-0.646-1.453C15.082,12.227,14.3,12.324,13.688,12.646z"/>
		<path fill="#FAFAFA" d="M14.291,13.65c0.245-0.186,0.649-0.107,0.765,0.192c0.09,0.369-0.045,0.743-0.204,1.072
			c-0.445,0.911-1.112,1.701-1.875,2.365c-0.188,0.172-0.407,0.306-0.64,0.409c0.031-0.81,0.31-1.592,0.653-2.318
			C13.312,14.727,13.683,14.064,14.291,13.65z"/>
		<path fill="#FAFAFA" d="M22.169,13.966c0.217-0.25,0.59-0.5,0.92-0.329c0.363,0.214,0.174,0.695,0.03,0.99
			c-0.498,0.92-1.239,1.696-2.041,2.358C21.066,15.894,21.457,14.795,22.169,13.966z"/>
		<path fill="#FAFAFA" d="M11.38,24.553c0.94-0.79,1.983-1.469,3.101-1.985c-0.118,1.234-0.407,2.458-0.875,3.607
			c-0.399,0.925-0.993,1.878-1.977,2.256c-0.51,0.192-1.175,0.312-1.616-0.091c-0.419-0.371-0.39-1-0.269-1.498
			C9.998,25.913,10.682,25.182,11.38,24.553z"/>
	</g>
</g>
<g>
	<rect x="65.958" y="24.456" fill="#FAFAFA" width="25.789" height="2.382"/>
	<rect x="77.666" y="21.793" fill="#FAFAFA" width="2.495" height="7.709"/>
	<g>
		<path fill="#FAFAFA" d="M78.886,6.336c-2.814,0-5.099,2.282-5.099,5.099c0,2.816,2.284,5.098,5.099,5.098
			c2.818,0,5.1-2.282,5.1-5.098C83.985,8.618,81.704,6.336,78.886,6.336z M78.886,14.333c-1.6,0-2.898-1.297-2.898-2.897
			c0-1.601,1.299-2.898,2.898-2.898c1.602,0,2.899,1.297,2.899,2.898C81.785,13.036,80.487,14.333,78.886,14.333z"/>
	</g>
	<rect x="77.598" y="1.102" fill="#FAFAFA" width="2.577" height="7.112"/>
	<path fill="#FAFAFA" d="M74.305,15.916c0,0,1.562,1.751,3.401,1.857L66.003,38.419l0.786-3.892c0,0-1.798-1.905-1.073-3.26
		C67.772,27.418,74.305,15.916,74.305,15.916z"/>
	<path fill="#FAFAFA" d="M83.49,15.916c0,0-1.563,1.751-3.401,1.857l11.703,20.646l-0.787-3.892c0,0,1.798-1.905,1.072-3.26
		C90.021,27.418,83.49,15.916,83.49,15.916z"/>
	<path fill="#FAFAFA" d="M47.08,33.996c0,0,2.485,1.16,3.783,0.685c1.429-0.523,1.449-2.354-0.824-3.039
		c-2.275-0.685-3.255-2.133-3.281-3.28c-0.022-0.988,0.142-2.878,2.638-3.643c2.166-0.665,4.064,0.12,4.646,0.342l-0.622,2.113
		c0,0-2.688-1.364-3.63-0.148c-0.738,0.954,0.174,1.893,1.678,2.463c1.236,0.469,3.865,1.822,2.926,4.931
		c-0.853,2.818-5.423,3-7.836,1.812L47.08,33.996z"/>
	<path fill="#FAFAFA" d="M106.959,32.54c0,0,2.485,1.16,3.784,0.685c1.43-0.523,1.449-2.354-0.826-3.039
		c-2.273-0.685-3.253-2.133-3.28-3.28c-0.022-0.988,0.141-2.878,2.636-3.643c2.169-0.665,4.066,0.12,4.651,0.342l-0.626,2.113
		c0,0-2.688-1.364-3.627-0.148c-0.739,0.954,0.173,1.893,1.676,2.463c1.236,0.469,3.866,1.822,2.925,4.931
		c-0.851,2.818-5.42,3-7.836,1.812L106.959,32.54z"/>
	<polygon fill="#FAFAFA" points="64.667,23 55.667,23 55.667,27 59.667,27 59.667,37 61.667,37 61.667,27 64.667,27 	"/>
	<polygon fill="#FAFAFA" points="104.667,23 94.667,23 94.667,27 97.667,27 97.667,37 100.667,37 100.667,27 104.667,27 	"/>
	<rect x="62.667" y="23" fill="#FAFAFA" width="32" height="2"/>
</g>
</svg>
