<?xml version="1.0" encoding="utf-8"?>
<!-- Generator: Adobe Illustrator 16.0.0, SVG Export Plug-In . SVG Version: 6.00 Build 0)  -->
<!DOCTYPE svg PUBLIC "-//W3C//DTD SVG 1.1//EN" "http://www.w3.org/Graphics/SVG/1.1/DTD/svg11.dtd">
<svg version="1.1" id="Layer_1" xmlns="http://www.w3.org/2000/svg" xmlns:xlink="http://www.w3.org/1999/xlink" x="0px" y="0px"
	 width="190.417px" height="63.25px" viewBox="0 0 190.417 63.25" enable-background="new 0 0 190.417 63.25" xml:space="preserve">
<g>
	<g id="_x23_3a73b8ff_1_">
		<path fill="#3A73B8" d="M26.027,7.969c5.324-0.406,10.758,0.837,15.377,3.51c3.699,2.131,6.895,5.138,9.207,8.727
			c2.875,4.389,4.395,9.642,4.35,14.884c-0.035,5.48-1.777,10.942-4.967,15.403c-3.232,4.579-7.934,8.103-13.242,9.907
			c-4.711,1.63-9.873,1.886-14.736,0.798c-5.1-1.137-9.835-3.819-13.459-7.582c-3.842-3.977-6.44-9.153-7.233-14.631
			c-0.782-4.879-0.135-9.967,1.771-14.522c1.77-4.232,4.65-7.987,8.259-10.819C15.529,10.348,20.714,8.336,26.027,7.969
			 M26.02,9.264c-3.162,0.226-6.271,1.072-9.135,2.441c-4.599,2.217-8.535,5.819-11.086,10.25
			C1.998,28.342,1.265,36.428,3.754,43.42c1.599,4.549,4.518,8.604,8.291,11.6c4.384,3.479,9.931,5.482,15.531,5.529
			c4.09,0.09,8.199-0.84,11.852-2.681c4.65-2.302,8.561-6.067,11.059-10.614c2.496-4.513,3.59-9.802,3.035-14.933
			c-0.738-8.329-5.941-16.043-13.281-20C35.934,9.95,30.923,8.864,26.02,9.264z"/>
		<path fill="#3A73B8" d="M21.48,11.706c4.482-1.255,9.336-1.199,13.771,0.231c0.191,0.06,0.342,0.202,0.492,0.329
			c-0.732-0.055-1.402-0.385-2.123-0.51c-1.813-0.361-3.691-0.541-5.529-0.267c-1.15,0.207-2.361,0.652-3.09,1.614
			c-0.551,0.714-0.607,1.836,0.029,2.514c0.707,0.748,1.965,0.708,2.748,0.104c0.926-0.681,1.824-1.491,2.98-1.744
			c2.352-0.583,4.814-0.114,7.09,0.563c2.734,0.744,5.316,2.094,7.416,4.006c3.492,3.086,5.594,7.52,6.391,12.063
			c0.695,3.879,0.486,7.931-0.717,11.689c-0.043,0.176-0.154,0.278-0.34,0.307c0.701-2.559,1.217-5.273,0.695-7.915
			c-0.273-1.274-0.9-2.713-2.244-3.149c-1.025-0.363-2.277,0.344-2.359,1.458c-0.195,1.195,0.779,2.058,1.389,2.952
			c1.307,1.876,1.145,4.306,0.826,6.458c-0.602,2.91-1.572,5.809-3.338,8.236c-2.723,3.908-7.059,6.488-11.643,7.589
			c-3.984,0.951-8.205,0.945-12.184-0.035c-0.525-0.155-1.117-0.225-1.525-0.626c0.76-0.002,1.463,0.327,2.203,0.445
			c2.027,0.369,4.146,0.596,6.17,0.09c0.918-0.254,1.85-0.689,2.426-1.477c0.533-0.731,0.523-1.854-0.135-2.512
			c-0.568-0.6-1.516-0.724-2.242-0.346c-0.863,0.469-1.523,1.238-2.408,1.68c-1.777,0.864-3.842,0.736-5.738,0.416
			c-3.148-0.617-6.258-1.758-8.795-3.766c-3.369-2.588-5.703-6.366-6.847-10.434c-1.209-4.256-1.217-8.832-0.114-13.114
			c0.192-0.441,0.118-1.144,0.624-1.353c-0.646,2.445-1.156,5.009-0.764,7.544c0.2,1.125,0.594,2.314,1.525,3.047
			c0.645,0.533,1.655,0.729,2.369,0.217c0.761-0.444,1.013-1.502,0.659-2.281c-0.373-0.881-1.128-1.523-1.559-2.371
			c-0.935-1.705-0.834-3.746-0.584-5.613c0.521-2.994,1.538-5.953,3.303-8.451C12.934,15.499,17.059,12.897,21.48,11.706
			 M22.087,20.795c-1.463,0.787-2.467,2.194-3.205,3.646c-0.779,1.491-1.102,3.158-1.254,4.817
			c-0.721-0.096-1.301-0.653-1.467-1.354c-0.336-1.024,0.018-2.078,0.201-3.09c0.08-0.293-0.143-0.533-0.26-0.774
			c-0.615-0.037-1.241,0.266-1.52,0.826c-0.835,1.561-0.76,3.666,0.394,5.051c0.662,0.84,1.707,1.254,2.746,1.364
			c0.352,1.08,1.035,2.133,2.137,2.557c1.346,0.543,2.826-0.025,3.996-0.734c-0.043,0.436-0.064,0.879-0.217,1.293
			c-0.41,0.332-0.912,0.525-1.371,0.781c-2.258,1.19-4.561,2.389-6.455,4.123c-1.384,1.297-2.471,3.022-2.682,4.938
			c-0.101,1.503,0.499,3.152,1.813,3.98c1.378,0.91,3.193,0.858,4.693,0.295c1.893-0.721,3.303-2.326,4.236-4.077
			c1.377-2.479,1.613-5.37,1.816-8.144c0.055-0.324-0.016-0.785,0.367-0.925c2.254-1.268,4.443-2.646,6.537-4.163
			c0.248,0.305,0.492,0.61,0.727,0.923c-1.078,0.644-2.154,1.338-2.967,2.31c-3.043,3.328-3.094,9.042,0.096,12.29
			c1.631,1.719,4.137,2.455,6.457,2.111c2.133-0.306,4.074-1.646,5.15-3.504c1.434-2.369,1.201-5.682-0.666-7.746
			c-1.744-1.929-5.141-1.892-6.848,0.065c-1.34,1.412-1.385,3.91,0.016,5.289c0.568,0.567,1.557,0.91,2.268,0.422
			c0.459-0.33,0.418-1.038,0.047-1.422c-0.48-0.578-1.047-1.25-0.904-2.058c0.145-1.053,1.32-1.696,2.311-1.473
			c0.846,0.131,1.523,0.795,1.838,1.57c0.742,1.766,0.322,3.955-1.01,5.328c-1.412,1.473-3.869,1.705-5.572,0.613
			c-1.514-0.931-2.375-2.658-2.643-4.371c-0.277-2.065,0.119-4.295,1.4-5.979c0.826-1.065,1.977-1.942,3.301-2.259
			c1.113,0.085,2.264,0.285,3.354-0.07c0.514-0.174,1.012-0.748,0.75-1.309c-0.281-0.575-0.975-0.748-1.551-0.869
			c-0.863-0.17-1.721,0.06-2.564,0.222c-0.588-0.203-0.9-0.821-1.119-1.367c1.639-1.223,3.256-2.553,4.367-4.291
			c0.646-1.045,1.068-2.328,0.764-3.557c-0.24-0.813-0.906-1.504-1.758-1.658c-1.418-0.357-2.869,0.357-3.834,1.373
			c-1.547,1.682-2.336,4.012-2.262,6.285c-0.021,0.469,0.16,0.961,0.027,1.412c-1.16,0.938-2.461,1.691-3.711,2.499
			c-0.719,0.417-1.404,0.899-2.166,1.235c0.014-0.723,0.051-1.456,0.258-2.153c0.549-0.753,1.242-1.407,1.678-2.241
			c0.318-0.576,0.619-1.305,0.287-1.941c-0.305-0.471-0.979-0.426-1.422-0.188c-0.943,0.474-1.457,1.472-1.838,2.406
			c-0.26,0.598-0.291,1.34-0.848,1.766c-0.777,0.679-1.713,1.36-2.793,1.321c-0.615,0.002-1.027-0.578-1.156-1.123
			c1.705-0.663,3.129-1.898,4.283-3.295c1.066-1.372,1.916-2.994,2.061-4.751c0.08-0.886-0.236-1.888-1.045-2.353
			C24.343,20.117,23.079,20.272,22.087,20.795z"/>
		<path fill="#3A73B8" d="M23.063,22.418c0.396-0.3,1.051-0.172,1.238,0.312c0.145,0.597-0.074,1.202-0.33,1.733
			c-0.721,1.476-1.801,2.754-3.031,3.826c-0.307,0.279-0.662,0.496-1.037,0.662c0.051-1.311,0.5-2.574,1.059-3.75
			C21.477,24.161,22.079,23.088,23.063,22.418z"/>
		<path fill="#3A73B8" d="M35.809,22.931c0.352-0.404,0.955-0.81,1.49-0.533c0.586,0.349,0.281,1.125,0.049,1.601
			c-0.807,1.49-2.004,2.744-3.303,3.816C34.025,26.049,34.659,24.272,35.809,22.931z"/>
		<path fill="#3A73B8" d="M18.354,40.061c1.521-1.279,3.209-2.377,5.016-3.213c-0.189,1.996-0.658,3.977-1.414,5.836
			c-0.646,1.496-1.607,3.039-3.199,3.65c-0.824,0.311-1.9,0.504-2.615-0.146c-0.676-0.602-0.629-1.619-0.434-2.424
			C16.12,42.26,17.223,41.076,18.354,40.061z"/>
	</g>
	<g>
		<rect x="104.63" y="38.379" width="40.845" height="3.772"/>
		<rect x="123.173" y="34.161" width="3.951" height="12.209"/>
		<g>
			<path d="M125.108,9.681c-4.457,0-8.074,3.614-8.074,8.075s3.617,8.074,8.074,8.074c4.461,0,8.074-3.615,8.074-8.074
				C133.182,13.295,129.569,9.681,125.108,9.681z M125.108,22.346c-2.533,0-4.59-2.055-4.59-4.59c0-2.534,2.057-4.59,4.59-4.59
				c2.535,0,4.59,2.056,4.59,4.59C129.698,20.292,127.643,22.346,125.108,22.346z"/>
		</g>
		<rect x="123.069" y="1.393" width="4.078" height="11.263"/>
		<path d="M117.85,24.854c0,0,2.475,2.773,5.387,2.939l-18.535,32.698l1.248-6.163c0,0-2.848-3.018-1.697-5.162
			C107.507,43.07,117.85,24.854,117.85,24.854z"/>
		<path d="M132.401,24.854c0,0-2.479,2.773-5.389,2.939l18.534,32.698l-1.246-6.163c0,0,2.847-3.018,1.699-5.162
			C142.741,43.07,132.401,24.854,132.401,24.854z"/>
		<path d="M74.734,53.488c0,0,3.938,1.838,5.994,1.084c2.262-0.828,2.295-3.73-1.307-4.814c-3.605-1.084-5.154-3.377-5.195-5.194
			C74.189,43,74.447,40.006,78.4,38.795c3.434-1.053,6.439,0.19,7.364,0.541l-0.986,3.348c0,0-4.258-2.16-5.75-0.233
			c-1.168,1.509,0.277,2.996,2.658,3.9c1.958,0.741,6.122,2.885,4.633,7.809c-1.353,4.462-8.588,4.75-12.41,2.867L74.734,53.488z"/>
		<path d="M163.606,53.488c0,0,3.938,1.838,5.992,1.084c2.264-0.828,2.293-3.73-1.31-4.814c-3.601-1.084-5.151-3.377-5.195-5.194
			c-0.034-1.563,0.224-4.558,4.179-5.769c3.432-1.053,6.438,0.19,7.362,0.541l-0.989,3.348c0,0-4.256-2.16-5.746-0.233
			c-1.17,1.509,0.272,2.996,2.656,3.9c1.957,0.741,6.12,2.885,4.631,7.809c-1.349,4.462-8.584,4.75-12.408,2.867L163.606,53.488z"/>
		<polygon points="102.989,37.484 87.87,37.484 87.87,42.885 92.729,42.885 92.729,58.004 97.048,58.004 97.048,42.885 
			102.989,42.885 		"/>
		<polygon points="161.846,37.484 147.268,37.484 147.268,42.885 152.667,42.885 152.667,58.004 156.987,58.004 156.987,42.885 
			161.846,42.885 		"/>
		<rect x="100.29" y="37.484" width="48.598" height="2.16"/>
	</g>
</g>
<g>
	<path fill="#3A73B8" d="M159.845,34.828l-1.742-5.444h1.347l0.664,2.302c0.185,0.646,0.354,1.267,0.484,1.947h0.022
		c0.138-0.654,0.307-1.301,0.495-1.923l0.692-2.326h1.309l-1.832,5.444H159.845z"/>
	<path fill="#3A73B8" d="M163.011,34.174c0-0.436,0.297-0.752,0.728-0.752c0.428,0,0.718,0.307,0.718,0.752
		c0,0.428-0.29,0.743-0.728,0.743C163.308,34.917,163.011,34.602,163.011,34.174z"/>
	<path fill="#3A73B8" d="M166.611,30.668h-0.016l-1.002,0.476l-0.201-0.92l1.388-0.646h1.019v5.251h-1.188V30.668z"/>
	<path fill="#3A73B8" d="M169.588,34.174c0-0.436,0.3-0.752,0.728-0.752s0.718,0.307,0.718,0.752c0,0.428-0.29,0.743-0.725,0.743
		C169.888,34.917,169.588,34.602,169.588,34.174z"/>
	<path fill="#3A73B8" d="M175.501,32.178c0,1.624-0.654,2.739-1.994,2.739c-1.356,0-1.957-1.221-1.963-2.706
		c0-1.519,0.645-2.722,2.004-2.722C174.953,29.489,175.501,30.74,175.501,32.178z M172.78,32.211
		c-0.007,1.203,0.283,1.776,0.759,1.776s0.734-0.597,0.734-1.792c0-1.164-0.249-1.778-0.744-1.778
		C173.08,30.417,172.773,30.99,172.78,32.211z"/>
</g>
</svg>
